<!-- Generated by IcoMoon.io -->
<svg version="1.1" xmlns="http://www.w3.org/2000/svg" width="32" height="32" viewBox="0 0 32 32">
<path d="M13.667 0.233c0 0.117-0.167 0.333-0.383 0.467-0.4 0.267-0.95 1.617-0.95 2.317 0 0.233-0.117 0.767-0.267 1.2-0.233 0.683-0.35 0.8-0.917 0.967-0.617 0.2-0.667 0.183-1.9-0.65-1.667-1.133-2.217-1.317-2.933-1.033-0.75 0.317-2.6 2.083-3.017 2.9-0.433 0.85-0.267 1.467 0.883 3.15 0.75 1.133 0.833 1.317 0.717 1.867-0.133 0.717-0.683 1.033-2.233 1.25-1.217 0.183-2.050 0.55-2.4 1.067-0.383 0.617-0.383 4.25 0 4.867 0.35 0.517 1.183 0.883 2.4 1.067 1.55 0.217 2.1 0.533 2.233 1.25 0.117 0.55 0.033 0.733-0.717 1.867-1.15 1.683-1.317 2.3-0.883 3.15 0.417 0.817 2.267 2.583 3.017 2.9 0.717 0.283 1.267 0.1 2.933-1.033 1.233-0.833 1.283-0.85 1.9-0.65 0.567 0.167 0.683 0.283 0.917 0.967 0.15 0.433 0.267 0.983 0.267 1.25 0 0.7 0.483 1.833 0.983 2.25 0.4 0.35 0.6 0.383 2.517 0.383s2.117-0.033 2.517-0.383c0.5-0.417 0.983-1.55 0.983-2.25 0-0.267 0.117-0.817 0.267-1.25 0.233-0.683 0.35-0.8 0.917-0.967 0.617-0.2 0.667-0.183 1.9 0.65 1.667 1.133 2.217 1.317 2.933 1.033 0.783-0.317 2.717-2.2 3.067-3.017 0.383-0.833 0.25-1.3-0.933-3.050-0.75-1.117-0.833-1.3-0.717-1.85 0.133-0.717 0.683-1.033 2.233-1.25 1.167-0.183 2.1-0.567 2.333-1 0.1-0.183 0.283-0.333 0.417-0.333 0.2 0 0.25-0.367 0.25-2.167s-0.050-2.167-0.25-2.167c-0.133 0-0.317-0.15-0.417-0.333-0.233-0.433-1.167-0.817-2.333-1-1.55-0.217-2.1-0.533-2.233-1.25-0.117-0.55-0.033-0.733 0.717-1.85 1.183-1.75 1.317-2.217 0.933-3.050-0.35-0.817-2.283-2.7-3.067-3.017-0.717-0.283-1.267-0.1-2.917 1.017-1.117 0.75-1.3 0.833-1.85 0.717-0.717-0.133-1.033-0.683-1.25-2.233-0.183-1.167-0.567-2.1-1-2.333-0.183-0.1-0.333-0.283-0.333-0.417 0-0.2-0.367-0.25-2.167-0.25-1.733 0-2.167 0.050-2.167 0.233zM17.467 3.2c0.133 0.583 0.283 1.367 0.35 1.767 0.133 0.75 0.883 1.7 1.333 1.7 0.15 0 0.417 0.117 0.583 0.25 0.45 0.333 2.167 0.333 2.5 0 0.133-0.133 0.283-0.25 0.35-0.25 0.1 0 1.117-0.683 1.25-0.85 0.25-0.3 0.85-0.483 1.133-0.333 0.367 0.183 1.7 1.617 1.7 1.8 0 0.083-0.417 0.733-0.917 1.467-0.817 1.183-0.917 1.417-0.917 2.183 0 0.933 0.55 2.25 1.167 2.817 0.183 0.167 0.65 0.367 1.050 0.433 0.383 0.067 1.167 0.217 1.75 0.35l1.033 0.217v2.833l-1.033 0.217c-0.583 0.133-1.367 0.283-1.75 0.35-0.883 0.167-1.283 0.5-1.8 1.567-0.483 0.95-0.567 2.433-0.167 2.85 0.133 0.133 0.25 0.283 0.25 0.333 0 0.033 0.3 0.533 0.667 1.083s0.667 1.050 0.667 1.1c0 0.15-1.383 1.6-1.7 1.767-0.283 0.15-0.883-0.033-1.133-0.333-0.133-0.167-1.15-0.85-1.25-0.85-0.067 0-0.217-0.117-0.35-0.25-0.333-0.333-2.050-0.333-2.5 0-0.167 0.133-0.433 0.25-0.583 0.25-0.45 0-1.2 0.95-1.333 1.7-0.067 0.4-0.217 1.183-0.35 1.767l-0.217 1.033h-2.833l-0.217-1.050c-0.133-0.567-0.283-1.35-0.35-1.75-0.133-0.75-0.883-1.7-1.333-1.7-0.15 0-0.417-0.117-0.583-0.25-0.45-0.333-2.167-0.333-2.5 0-0.133 0.133-0.283 0.25-0.35 0.25-0.1 0-1.117 0.683-1.25 0.85-0.25 0.3-0.85 0.483-1.133 0.333-0.317-0.167-1.7-1.617-1.7-1.767 0-0.050 0.417-0.717 0.917-1.483 0.817-1.217 0.917-1.467 0.917-2.217 0-0.917-0.55-2.233-1.167-2.8-0.183-0.167-0.65-0.367-1.050-0.433-0.383-0.067-1.167-0.217-1.733-0.35l-1.050-0.217v-2.833l1.050-0.217c0.567-0.133 1.35-0.283 1.733-0.35 0.4-0.067 0.867-0.267 1.050-0.433 0.617-0.567 1.167-1.883 1.167-2.817 0-0.767-0.1-1-0.917-2.183-0.5-0.733-0.917-1.383-0.917-1.467 0-0.183 1.333-1.617 1.7-1.8 0.283-0.15 0.883 0.033 1.133 0.333 0.133 0.167 1.15 0.85 1.25 0.85 0.067 0 0.217 0.117 0.35 0.25 0.417 0.4 1.9 0.317 2.85-0.167 1.067-0.517 1.4-0.917 1.567-1.8 0.067-0.383 0.217-1.167 0.35-1.75l0.217-1.033h2.833l0.217 1.033z"></path>
<path d="M14.75 9.267c-1.783 0.483-2.667 0.967-3.767 2.050-1.433 1.45-2.050 2.9-2.050 4.85s0.617 3.4 2.050 4.85c1.45 1.433 2.9 2.050 4.85 2.050s3.4-0.617 4.85-2.050c1.433-1.45 2.050-2.9 2.050-4.85 0-3.050-1.717-5.35-4.983-6.667-0.55-0.217-2.483-0.367-3-0.233zM18.6 10.683c1.333 0.7 2.050 1.433 2.733 2.767 0.55 1.083 0.583 1.2 0.567 2.8-0.017 1.55-0.067 1.733-0.567 2.667-0.733 1.367-1.5 2.117-2.8 2.767-1.033 0.5-1.25 0.55-2.7 0.55s-1.667-0.050-2.7-0.55c-1.3-0.65-2.067-1.4-2.8-2.767-0.517-0.933-0.55-1.117-0.55-2.667-0.017-1.567 0.017-1.733 0.533-2.75 0.667-1.35 1.45-2.15 2.65-2.767s1.8-0.717 3.383-0.633c1.017 0.050 1.483 0.183 2.25 0.583z"></path>
<path d="M14.517 12.467c-1.383 0.533-2.683 2.317-2.683 3.7 0 0.8 0.583 2.050 1.267 2.733s1.933 1.267 2.733 1.267c0.8 0 2.050-0.583 2.733-1.267s1.267-1.933 1.267-2.733c0-1.433-1.317-3.183-2.767-3.717-1-0.35-1.583-0.35-2.55 0.017zM17.283 13.517c0.317 0.2 0.8 0.667 1.067 1.033 0.4 0.55 0.483 0.833 0.483 1.617s-0.083 1.067-0.483 1.617c-0.7 0.967-1.467 1.383-2.517 1.383s-1.817-0.417-2.517-1.383c-0.4-0.55-0.483-0.833-0.483-1.583 0-1.1 0.4-1.833 1.383-2.55 0.85-0.617 2.183-0.683 3.067-0.133z"></path>
</svg>
