<!-- Generated by IcoMoon.io -->
<svg version="1.1" xmlns="http://www.w3.org/2000/svg" width="30" height="32" viewBox="0 0 30 32">
<title>aeTNDT8dUA</title>
<path d="M2.123 0.538c-2.123 1.136-2.123 1.077-2.123 15.462 0 11.903 0.030 12.95 0.538 13.877 1.136 2.123 1.196 2.123 14.415 2.123s13.278 0 14.415-2.123c0.508-0.927 0.538-1.974 0.538-13.877s-0.030-12.95-0.538-13.877c-1.136-2.123-1.196-2.123-14.415-2.123-10.886 0-11.903 0.030-12.83 0.538zM27.275 2.602c0.508 0.449 0.538 1.256 0.538 13.338 0 11.574-0.060 12.92-0.508 13.428s-1.226 0.538-12.292 0.538c-10.587 0-11.873-0.060-12.381-0.508s-0.538-1.256-0.538-13.338c0-11.574 0.060-12.92 0.508-13.428s1.226-0.538 12.292-0.538c10.587 0 11.873 0.060 12.381 0.508z"></path>
<path d="M4.067 4.665c-0.329 0.837-0.209 18.064 0.12 18.692 0.299 0.538 0.748 0.568 10.766 0.568s10.467-0.030 10.766-0.568c0.329-0.628 0.449-17.854 0.12-18.692-0.15-0.419-1.406-0.479-10.886-0.479s-10.736 0.060-10.886 0.479zM24.822 11.873v6.819l-1.824-1.884c-1.017-1.017-1.944-1.854-2.064-1.854-0.299 0-0.568 0.269-2.213 2.064-0.957 1.077-1.196 1.226-1.525 0.897-0.209-0.239-1.974-2.243-3.888-4.456-3.439-3.948-3.978-4.486-4.396-4.486-0.209 0-2.004 1.854-3.2 3.29l-0.598 0.748-0.030-3.978v-3.948h19.738v6.789zM14.056 15.761c2.692 3.11 5.234 5.981 5.652 6.43l0.748 0.837h-15.372v-8.553l1.824-2.153c1.017-1.196 1.914-2.153 2.034-2.153s2.422 2.512 5.114 5.593zM22.998 18.213c1.675 1.884 1.824 2.183 1.824 3.439v1.376h-1.585c-1.585 0-1.585 0-3.29-1.974l-1.705-1.974 1.226-1.465c0.658-0.807 1.316-1.465 1.436-1.465 0.15 0 1.077 0.927 2.093 2.064z"></path>
<path d="M17.107 7.626c-0.718 0.508-1.226 2.004-1.017 3.050 0.239 1.196 1.495 2.183 2.811 2.183 2.542 0 3.828-2.781 2.153-4.755-0.628-0.778-0.987-0.927-2.034-0.927-0.688 0-1.525 0.209-1.914 0.449zM20.456 8.733c0.987 1.406 0.12 3.23-1.525 3.23s-2.542-2.093-1.376-3.35c0.688-0.778 2.333-0.718 2.901 0.12z"></path>
</svg>
