<!-- Generated by IcoMoon.io -->
<svg version="1.1" xmlns="http://www.w3.org/2000/svg" width="36" height="32" viewBox="0 0 36 32">
<title>BcW5oGDVBI</title>
<path d="M15.552 0.145c0.036 0.17-0.424 0.315-1.127 0.327-0.303 0.012-0.739 0.073-0.97 0.145-0.23 0.061-0.667 0.17-0.97 0.23-1.636 0.327-3.818 1.188-5.455 2.17-0.23 0.133-0.509 0.291-0.606 0.339-0.449 0.206-2.085 1.539-2.945 2.412-1.697 1.709-2.812 3.685-3.273 5.745-0.17 0.739-0.17 3.915 0 4.667 0.206 0.945 0.836 2.461 1.406 3.394 0.509 0.824 1.649 2.194 2.412 2.897 0.909 0.836 2.521 1.988 3.248 2.327 0.667 0.303 0.752 0.739 0.364 1.964-0.303 0.945-0.752 1.903-1.418 3.006-0.885 1.479-0.679 2.23 0.63 2.23 0.351 0 0.691-0.061 0.727-0.121 0.036-0.073 0.218-0.121 0.388-0.121 0.339 0 2.824-1.188 2.824-1.358 0-0.049 0.061-0.097 0.133-0.097 0.194 0 1.903-1.333 2.776-2.182l0.788-0.764 3.151 0.024c1.83 0.012 3.406-0.036 3.758-0.109 0.339-0.073 0.921-0.17 1.297-0.23 0.703-0.109 0.873-0.158 2.279-0.606 2.861-0.897 5.285-2.242 7.152-3.976 0.752-0.691 1.903-2.085 2.388-2.885 0.364-0.594 1.006-1.915 1.006-2.061 0-0.085 0.085-0.315 0.182-0.497 0.097-0.194 0.182-0.485 0.182-0.655 0-0.497 0.133-0.848 0.315-0.848 0.133 0 0.17-0.339 0.17-1.709 0-1.042-0.048-1.673-0.109-1.624-0.158 0.085-0.376-0.327-0.376-0.691 0-0.351-0.388-1.491-0.824-2.4-0.497-1.067-1.394-2.291-2.412-3.321-0.861-0.873-2.497-2.206-2.945-2.412-0.097-0.049-0.376-0.206-0.606-0.339-1.636-0.982-3.818-1.842-5.455-2.17-0.303-0.061-0.739-0.17-0.97-0.23-0.23-0.073-0.667-0.133-0.97-0.145-0.703-0.012-1.164-0.158-1.115-0.327 0.012-0.109-0.655-0.145-2.521-0.145s-2.533 0.036-2.509 0.145zM20.424 2.497c1.842 0.218 3.709 0.655 4.752 1.103 0.206 0.085 0.436 0.158 0.497 0.158 0.073 0 0.279 0.085 0.473 0.182 0.182 0.085 0.582 0.291 0.885 0.424 1.236 0.582 2.788 1.661 3.951 2.752 1.903 1.77 3.212 4.812 3.042 7.042-0.097 1.236-0.339 2.23-0.752 3.115-1.212 2.594-3.442 4.703-6.424 6.109-1.467 0.679-2.158 0.945-2.849 1.091-0.23 0.049-0.618 0.158-0.849 0.23-1.503 0.461-4.242 0.655-7.006 0.497-1.2-0.073-2.024-0.073-2.303 0.012-0.303 0.073-0.715 0.388-1.297 0.982-0.848 0.861-2.473 2.182-2.885 2.327-0.267 0.097-0.412-0.206-0.218-0.448 0.424-0.509 0.764-2.945 0.509-3.624-0.17-0.436-0.861-1.188-1.285-1.382-0.194-0.085-0.521-0.267-0.727-0.4-0.194-0.133-0.449-0.279-0.545-0.327-0.097-0.036-0.206-0.109-0.242-0.145s-0.279-0.218-0.545-0.4c-1.176-0.812-2.776-2.618-3.418-3.879-0.667-1.297-1.127-2.97-1.127-4.097s0.461-2.8 1.127-4.097c1.030-2.012 3.43-4.194 5.903-5.358 0.303-0.133 0.703-0.339 0.885-0.424 0.194-0.097 0.4-0.182 0.473-0.182 0.061 0 0.291-0.073 0.497-0.158 0.97-0.412 2.897-0.885 4.509-1.091 1.842-0.242 3.127-0.242 4.97-0.012z"></path>
<path d="M14.909 6.145c-1.758 0.351-2.618 0.63-4.242 1.345-0.933 0.424-2.315 1.37-3.055 2.121-0.461 0.461-1.115 1.273-1.224 1.539-0.048 0.097-0.133 0.267-0.194 0.364-0.351 0.594-0.509 1.212-0.473 1.939 0.036 0.752 0.048 0.788 0.364 0.824 0.388 0.049 0.521-0.17 0.642-1.006 0.194-1.442 1.479-3.127 3.152-4.145 0.267-0.158 1.842-0.921 2.424-1.176 1.030-0.449 3.261-0.921 4.303-0.921 1.224 0 1.697-0.109 1.842-0.436 0.097-0.206 0.097-0.327-0.024-0.473-0.206-0.242-2.242-0.23-3.515 0.024z"></path>
</svg>
