<!-- Generated by IcoMoon.io -->
<svg version="1.1" xmlns="http://www.w3.org/2000/svg" width="51" height="32" viewBox="0 0 51 32">
<title>BvupRT1b3t</title>
<path d="M19.53 0.762c-6.883 1.498-15.086 7.213-18.387 12.851l-1.321 2.26 1.168 2.235c3.911 7.34 15.39 13.867 24.406 13.867 8.94 0 19.86-6.121 24.254-13.587l1.321-2.26-1.168-2.235c-5.054-9.524-19.022-15.594-30.273-13.13zM29.74 3.606c6.019 1.067 12.952 5.384 16.178 10.032 1.829 2.616 1.549 3.403-2.489 7.467-10.184 10.184-25.879 10.184-36.063 0-4.038-4.064-4.317-4.851-2.489-7.467 5.181-7.467 15.695-11.708 24.863-10.032z"></path>
<path d="M20.825 5.867c-8.838 3.962-8.305 17.549 0.813 20.571 9.676 3.175 18.362-7.213 13.257-15.898-2.768-4.724-9.194-6.857-14.070-4.673zM30.552 8.051c7.771 4.952 4.165 17.473-5.029 17.473-7.644 0-12.292-8.457-8.127-14.756 2.844-4.292 8.711-5.511 13.156-2.717z"></path>
<path d="M22.451 10.489c-1.854 0.914-3.149 2.971-3.149 4.978 0 1.803 0.965 1.625 1.346-0.229 0.356-1.727 2.794-4.063 4.292-4.063 0.533 0 0.965-0.356 0.965-0.762 0-0.99-1.346-0.94-3.454 0.076z"></path>
</svg>
