<!-- Generated by IcoMoon.io -->
<svg version="1.1" xmlns="http://www.w3.org/2000/svg" width="36" height="32" viewBox="0 0 36 32">
<title>CG0tW4jKUS</title>
<path d="M6.527 0.636c-2.345 1.6-6.145 4.945-6.364 5.582-0.291 0.945 2.218 8.436 3.109 9.236 0.436 0.4 1.055 0.564 1.618 0.455l0.927-0.164v7.564c0 9.691-1.436 8.691 12.364 8.691s12.364 1 12.364-8.691v-7.564l0.927 0.164c1.455 0.291 2.2-0.764 3.636-5.036 1.564-4.745 1.564-4.782-1.745-7.473-4.545-3.727-3.073-3.4-15.182-3.4-9.6 0-10.818 0.073-11.655 0.636zM13.673 3.582c2.345 2.745 6.673 2.745 9 0.018 2.127-2.473 4.855-2.182 8.618 0.964l2.836 2.364-1.055 3.145c-1.309 3.855-1.127 3.691-2.873 2.527-0.8-0.527-1.545-0.964-1.655-0.964-0.091 0-0.182 4.091-0.182 9.091v9.091h-20.364v-9.091c0-5-0.091-9.091-0.182-9.091-0.109 0-0.855 0.436-1.655 0.964-1.745 1.164-1.564 1.327-2.873-2.527l-1.055-3.145 2.782-2.364 2.8-2.345 2.327-0.018c2.255-0.018 2.364 0.018 3.527 1.382zM21.818 3.091c-1.164 1.236-3.236 1.764-5.018 1.291-0.764-0.2-1.782-0.782-2.255-1.291l-0.855-0.909h8.982l-0.855 0.909z"></path>
</svg>
