<!-- Generated by IcoMoon.io -->
<svg version="1.1" xmlns="http://www.w3.org/2000/svg" width="45" height="32" viewBox="0 0 45 32">
<title>cRvl1lMTj3</title>
<path d="M20.383 0.626c-2.922 0.765-5.496 2.435-6.887 4.591-0.765 1.183-1.739 1.739-3.2 1.739-2.852 0-6.33 3.478-6.052 6.052 0.139 1.322-0.348 2.504-1.53 3.757-3.548 3.478-2.991 10.435 0.974 13.426 1.878 1.391 2.852 1.461 17.739 1.461 13.774 0 16.070-0.139 18.017-1.252 6.47-3.478 6.122-14.957-0.487-17.809-2.087-0.835-2.852-1.67-3.409-3.617-1.948-6.4-8.417-9.948-15.165-8.348zM27.687 3.757c2.783 1.391 4.313 3.409 5.287 6.748 0.696 2.365 1.322 3.13 3.061 3.687 3.757 1.322 5.357 3.478 5.357 7.374 0 2.852-0.348 3.757-1.948 5.357l-1.878 1.948-30.609 0.417-2.087-2.087c-2.922-2.922-2.852-5.843 0.348-8.835 2.017-1.878 2.365-2.574 2.017-4.313-0.557-2.783 1.322-4.591 4.313-4.104 2.017 0.348 2.435 0.139 3.687-2.017 2.713-4.522 8.209-6.4 12.452-4.174z"></path>
</svg>
