<!-- Generated by IcoMoon.io -->
<svg version="1.1" xmlns="http://www.w3.org/2000/svg" width="37" height="32" viewBox="0 0 37 32">
<title>EVJhy5XXCv</title>
<path d="M5.086 1.257c-3.657 5.943-6.286 26.8-3.714 29.371 1.886 1.886 31.943 1.886 33.829 0 2.571-2.571-0.057-23.429-3.714-29.371-1.029-1.714-25.371-1.714-26.4 0zM30.914 7.143c0.686 2.686 1.771 6.629 2.4 8.857 0.629 2.171 0.971 6.057 0.8 8.571l-0.4 4.571h-30.857l-0.4-4.571c-0.171-2.514 0.171-6.4 0.8-8.571 0.629-2.229 1.714-6.171 2.4-8.857l1.314-4.857h22.629l1.314 4.857z"></path>
<path d="M6.457 11.2c-2.457 8.743-2.4 9.371 0.914 9.371 1.657 0 3.314 0.971 4.057 2.286 1.771 3.314 11.943 3.314 13.714 0 0.743-1.314 2.4-2.286 4.057-2.286 3.314 0 3.371-0.629 0.914-9.371l-1.829-6.629h-20l-1.829 6.629zM28.343 10.857c1.886 7.029 1.771 7.429-1.429 7.429-1.657 0-3.314 0.971-4.057 2.286-0.8 1.486-2.4 2.286-4.571 2.286s-3.771-0.8-4.571-2.286c-0.743-1.314-2.4-2.286-4.057-2.286-3.2 0-3.314-0.4-1.429-7.429l1.371-5.143h17.371l1.371 5.143z"></path>
</svg>
