<!-- Generated by IcoMoon.io -->
<svg version="1.1" xmlns="http://www.w3.org/2000/svg" width="24" height="32" viewBox="0 0 24 32">
<title>EXDUivHBQe</title>
<path d="M9.55 0.5c-4 0.95-6.55 4.7-6.55 9.55 0 2.45-0.15 2.95-1.050 3.2-1.4 0.45-1.95 2.25-1.95 6.4 0.050 8.55 2.4 11.6 9.4 12.2 4.65 0.4 8.7-0.2 10.65-1.5 2.6-1.75 3.55-3.85 3.8-8.55 0.35-5.5-0.050-7.7-1.65-8.4-1.050-0.5-1.2-0.9-1.2-3.25 0-4.15-1.7-7.45-4.5-8.9-1.75-0.9-4.95-1.25-6.95-0.75zM15.4 3c2.45 1.5 3.6 3.75 3.6 7.1 0 2.55-0.1 2.9-1 2.9-0.85 0-1-0.35-1-2.5 0-3.050-0.8-4.85-2.55-5.8-2.6-1.35-5.75-0.4-6.85 2.050-0.35 0.7-0.6 2.4-0.6 3.75 0 2.15-0.15 2.5-1 2.5-0.9 0-1-0.35-1-2.9 0-6.25 5.55-10.050 10.4-7.1zM13.65 5.55c1.6 0.7 2.35 2.45 2.35 5.2v2.25h-8v-2.25c0-4.5 2.4-6.7 5.65-5.2zM21.9 20c0.15 5.4-0.55 7.2-3.5 9-2.4 1.45-10.4 1.45-12.8 0-2.8-1.7-3.6-3.65-3.6-8.8 0-2.5 0.15-4.7 0.35-4.9 0.2-0.15 4.65-0.25 9.85-0.2l9.55 0.15 0.15 4.75z"></path>
<path d="M10.5 19.75c-0.75 0.9-0.3 3.9 0.75 4.75s2.15-0.1 2.55-2.3c0.35-1.9-0.4-3.2-1.8-3.2-0.5 0-1.15 0.35-1.5 0.75z"></path>
</svg>
