<!-- Generated by IcoMoon.io -->
<svg version="1.1" xmlns="http://www.w3.org/2000/svg" width="32" height="32" viewBox="0 0 32 32">
<title>GDLpshqE3q</title>
<path d="M4.7 0.6c-0.4 0.4-0.7 1.9-0.7 3.3s-0.9 3.9-2 5.6c-2.4 3.6-2.5 4.9-0.5 6.8 0.9 0.9 1.5 4 1.7 8.3l0.3 6.9h25l0.3-6.9c0.2-4.3 0.8-7.4 1.7-8.3 1.9-1.9 1.9-3.3-0.2-6.3-0.9-1.3-1.9-4-2.3-5.9l-0.5-3.6-11.1-0.3c-6-0.1-11.3 0.1-11.7 0.4zM26 4c0 1.9-0.7 2-10 2s-10-0.1-10-2c0-1.9 0.7-2 10-2s10 0.1 10 2zM11.3 10.9c-0.8 3.7-1.2 4.1-3.4 4.1-1.9 0-1.9-0.1-0.3-2.5 0.9-1.4 1.4-2.8 1.1-3.1s-1.3 0.8-2.2 2.5c-0.8 1.7-2.2 3.1-3 3.1-1.9 0-1.9-1.5 0.1-4.5 1.2-1.8 2.4-2.4 5-2.3 3.1 0.1 3.3 0.3 2.7 2.7zM15.5 11.5c0 2.9-0.4 3.5-2.2 3.5-2 0-2-0.2-1-3.5 1.3-4.5 3.2-4.5 3.2 0zM19.7 11.5c1 3.2 0.9 3.5-0.8 3.5-1.5 0-1.9-0.7-1.9-3.5 0-1.9 0.4-3.5 0.8-3.5 0.5 0 1.3 1.6 1.9 3.5zM28.4 10.5c2 3 2 4.5 0.1 4.5-0.8 0-2.2-1.4-3-3.1-0.9-1.7-1.9-2.8-2.2-2.5s0.2 1.7 1.1 3.1c1.6 2.4 1.6 2.5-0.3 2.5-2.2 0-2.6-0.4-3.4-4.1-0.6-2.4-0.4-2.6 2.7-2.7 2.6-0.1 3.8 0.5 5 2.3zM27 23.5v6.5h-3c-3 0-3 0-3-5.6v-5.5l-9.5 0.6v10.5h-6.5v-13h22v6.5zM20 25v5h-7v-10h7v5z"></path>
</svg>
