<!-- Generated by IcoMoon.io -->
<svg version="1.1" xmlns="http://www.w3.org/2000/svg" width="32" height="32" viewBox="0 0 32 32">
<title>GeXAasTrVd</title>
<path d="M13.75 0.45c-3.65 0.9-5.7 3.15-7 7.75-1.5 5.15-0.7 9.25 3.1 16.35 0.1 0.2-0.55 0.45-1.45 0.65-2.5 0.45-7.7 3.050-8.050 4.050-0.45 1.1-0.45 1.050 0.45 1.95 0.65 0.7 2.75 0.8 15.2 0.8 12.65 0 14.55-0.1 15.25-0.8 0.45-0.45 0.7-1.15 0.55-1.55s-0.3-0.85-0.3-0.95c0-0.45-6.25-3.2-7.9-3.5-0.9-0.2-1.55-0.45-1.45-0.65 2.4-4.5 3.5-7.5 3.7-10.25 0.45-5.45-1.9-11.3-5.25-13-1.8-0.9-5-1.3-6.85-0.85zM19.55 3.15c0.95 0.6 2.25 2.15 2.95 3.35 1.050 1.9 1.25 2.9 1.25 6.3 0 3.65-0.2 4.4-1.75 7.5-1.75 3.4-4.15 5.7-6 5.7s-4.25-2.3-6-5.7c-1.55-3.1-1.75-3.85-1.75-7.5 0-3.4 0.2-4.4 1.25-6.3 1.55-2.75 4.050-4.5 6.5-4.5 1.1 0 2.55 0.45 3.55 1.15zM15.55 26.85c0.75 0.15 1.8 0 2.4-0.3 1.25-0.7 5.55 0.3 9.7 2.2l2.6 1.15h-28.5l2.25-1.050c3.3-1.5 8.1-2.85 9.25-2.55 0.55 0.15 1.6 0.4 2.3 0.55z"></path>
</svg>
