<!-- Generated by IcoMoon.io -->
<svg version="1.1" xmlns="http://www.w3.org/2000/svg" width="28" height="32" viewBox="0 0 28 32">
<title>GmjDhjfQ0O</title>
<path d="M10.526 0.168c-5.614 0.814-9.207 2.526-10.133 4.8-0.561 1.319-0.561 20.744 0 22.063 1.235 2.975 6.428 4.828 13.642 4.828s12.407-1.853 13.642-4.828c0.561-1.319 0.561-20.744 0-22.063-0.758-1.853-3.312-3.368-7.186-4.267-2.021-0.449-8.197-0.786-9.965-0.533zM20.435 2.667c3.312 0.786 5.67 2.442 5.67 3.93 0 1.319-2.161 2.807-5.361 3.677-2.582 0.73-10.835 0.73-13.418 0-3.2-0.87-5.361-2.358-5.361-3.677 0-1.909 3.537-3.789 8.421-4.435 1.853-0.253 8.281 0.056 10.049 0.505zM7.298 12.267c1.432 0.393 2.919 0.505 6.737 0.505 5.446 0 7.467-0.365 10.47-1.853l1.6-0.814v2.049c0 1.909-0.056 2.161-0.758 2.863-2.554 2.582-10.723 3.733-17.095 2.414-2.807-0.589-4.351-1.263-5.53-2.414-0.674-0.702-0.758-0.954-0.758-2.835v-2.049l1.768 0.814c0.954 0.449 2.554 1.039 3.565 1.319zM5.923 17.797c5.726 1.937 15.832 1.207 19.2-1.375l0.982-0.73v2.218c0 2.667-0.393 3.312-2.611 4.351-2.498 1.179-5.277 1.656-9.46 1.656s-6.961-0.477-9.46-1.656c-2.218-1.039-2.611-1.684-2.611-4.351v-2.218l0.926 0.702c0.477 0.365 1.853 1.011 3.032 1.404zM7.186 24.197c1.853 0.505 2.975 0.589 6.849 0.589 5.221 0 7.832-0.505 10.582-2.049l1.488-0.842v2.077c0 2.442-0.449 3.172-2.554 4.239-2.442 1.263-4.744 1.656-9.516 1.656s-7.074-0.393-9.516-1.656c-2.105-1.067-2.554-1.797-2.554-4.239v-2.077l1.488 0.842c0.842 0.449 2.498 1.123 3.733 1.46z"></path>
<path d="M22.596 13.305c-0.618 0.449-0.421 1.403 0.309 1.516 0.702 0.112 1.319-0.533 1.067-1.151-0.225-0.618-0.814-0.786-1.375-0.365z"></path>
<path d="M22.26 19.537c-0.197 0.505 0.168 1.263 0.674 1.432 0.168 0.056 0.505-0.084 0.758-0.337 0.337-0.337 0.365-0.589 0.168-1.011-0.365-0.646-1.347-0.702-1.6-0.084z"></path>
<path d="M22.512 25.235c-0.561 0.337-0.309 1.544 0.337 1.656 0.758 0.168 1.347-0.702 0.982-1.375-0.281-0.561-0.73-0.674-1.319-0.281z"></path>
</svg>
