<!-- Generated by IcoMoon.io -->
<svg version="1.1" xmlns="http://www.w3.org/2000/svg" width="32" height="32" viewBox="0 0 32 32">
<title>GpAiDtyqwK</title>
<path d="M7.467 0.139c0 0.075-0.117 0.245-0.267 0.373-0.256 0.224-0.267 0.288-0.267 1.344 0 0.757-0.043 1.141-0.139 1.216-0.075 0.064-1.109 0.128-2.635 0.149-2.368 0.032-2.528 0.043-2.88 0.267-0.213 0.128-0.512 0.384-0.672 0.555-0.64 0.725-0.608-0.053-0.608 13.557 0 13.664-0.043 12.811 0.64 13.589 0.181 0.192 0.533 0.459 0.8 0.587l0.48 0.224h13.963c13.408 0 13.984-0.011 14.432-0.203 0.512-0.213 1.12-0.832 1.28-1.312 0.053-0.16 0.171-0.299 0.256-0.299 0.128 0 0.149-1.856 0.149-12.576 0-12.48 0-12.576-0.213-12.629-0.117-0.032-0.213-0.149-0.213-0.256 0-0.277-0.565-0.928-1.056-1.227-0.363-0.235-0.512-0.245-2.891-0.277-1.525-0.021-2.56-0.085-2.635-0.149-0.096-0.075-0.139-0.459-0.139-1.216 0-1.056-0.011-1.12-0.267-1.344-0.149-0.128-0.267-0.299-0.267-0.373 0-0.096-0.149-0.139-0.427-0.139s-0.427 0.043-0.427 0.139c0 0.075-0.117 0.245-0.267 0.373-0.256 0.224-0.267 0.288-0.267 1.333 0 0.715-0.043 1.141-0.128 1.227-0.096 0.096-0.885 0.128-2.912 0.128s-2.816-0.032-2.912-0.128c-0.085-0.085-0.128-0.512-0.128-1.227 0-1.045-0.011-1.109-0.267-1.333-0.149-0.128-0.267-0.299-0.267-0.373 0-0.096-0.149-0.139-0.427-0.139s-0.427 0.043-0.427 0.139c0 0.075-0.117 0.245-0.267 0.373-0.256 0.224-0.267 0.288-0.267 1.333 0 0.715-0.043 1.141-0.128 1.227-0.181 0.181-5.643 0.181-5.824 0-0.085-0.085-0.128-0.512-0.128-1.227 0-1.045-0.011-1.109-0.267-1.333-0.149-0.128-0.267-0.299-0.267-0.373 0-0.096-0.149-0.139-0.427-0.139s-0.427 0.043-0.427 0.139zM6.805 5.141c0.085 0.085 0.128 0.512 0.128 1.227 0 1.056 0.011 1.099 0.299 1.365 0.384 0.363 0.715 0.437 1.024 0.235 0.565-0.373 0.597-0.448 0.597-1.611 0-0.704 0.043-1.131 0.128-1.216 0.181-0.181 5.643-0.181 5.824 0 0.085 0.085 0.128 0.512 0.128 1.227 0 1.056 0.011 1.099 0.299 1.365 0.384 0.363 0.715 0.437 1.024 0.235 0.565-0.373 0.597-0.448 0.597-1.611 0-0.704 0.043-1.131 0.128-1.216 0.181-0.181 5.643-0.181 5.824 0 0.085 0.085 0.128 0.512 0.128 1.216 0 1.163 0.032 1.237 0.597 1.611 0.309 0.203 0.64 0.128 1.035-0.235 0.277-0.267 0.288-0.309 0.288-1.376 0-0.832 0.043-1.141 0.149-1.237 0.117-0.085 0.747-0.117 2.293-0.085 2.080 0.032 2.133 0.043 2.4 0.288l0.277 0.256v24.011l-0.576 0.597h-26.987l-0.597-0.576v-24.032l0.245-0.213c0.331-0.309 0.427-0.331 2.635-0.341 1.419-0.011 2.016 0.021 2.112 0.117z"></path>
<path d="M7.008 12.224c-0.043 0.043-0.075 0.693-0.075 1.451 0 1.013 0.032 1.365 0.139 1.365 0.117 0.011 3.424 0.011 3.627 0 0.043 0 0.064-0.64 0.053-1.419l-0.032-1.408-1.824-0.032c-0.992-0.011-1.845 0.011-1.888 0.043z"></path>
<path d="M14.048 12.224c-0.117 0.128-0.085 2.816 0.032 2.816 0.064 0 0.875 0.011 1.813 0.011s1.76-0.011 1.813-0.011c0.075 0 0.107-0.501 0.085-1.419l-0.032-1.408-1.824-0.032c-0.992-0.011-1.845 0.011-1.888 0.043z"></path>
<path d="M21.088 12.224c-0.096 0.107-0.096 2.816 0.011 2.816 0.192 0.011 3.499 0.011 3.627 0 0.107 0 0.128-0.32 0.107-1.419l-0.032-1.408-1.824-0.032c-0.992-0.011-1.845 0.011-1.888 0.043z"></path>
<path d="M7.029 17.184c-0.064 0.032-0.085 0.661-0.075 1.44l0.032 1.376h3.733l0.032-1.419c0.011-0.768-0.011-1.408-0.053-1.408-1.259-0.043-3.595-0.043-3.669 0.011z"></path>
<path d="M14.069 17.184c-0.064 0.032-0.085 0.661-0.075 1.44l0.032 1.376h3.733l0.032-1.419c0.011-0.768-0.011-1.408-0.053-1.408-1.259-0.043-3.595-0.043-3.669 0.011z"></path>
<path d="M21.109 17.184c-0.064 0.032-0.085 0.661-0.075 1.44l0.032 1.376h3.733l0.032-1.419c0.021-1.088 0-1.408-0.107-1.408-1.152-0.043-3.541-0.043-3.616 0.011z"></path>
<path d="M6.976 22.325c-0.021 0.075-0.032 0.715-0.021 1.419l0.032 1.269h3.733l0.032-1.419 0.032-1.408h-1.877c-1.44 0-1.888 0.032-1.931 0.139z"></path>
<path d="M13.995 23.595l0.032 1.419h3.733l0.032-1.419 0.032-1.408h-3.861l0.032 1.408z"></path>
<path d="M21.035 23.595l0.032 1.419h3.733v-2.773l-1.899-0.032-1.899-0.021 0.032 1.408z"></path>
</svg>
