<!-- Generated by IcoMoon.io -->
<svg version="1.1" xmlns="http://www.w3.org/2000/svg" width="24" height="32" viewBox="0 0 24 32">
<title>GRMKOCHQhl</title>
<path d="M10.105 0.144c-4.451 0.866-7.916 3.777-9.408 7.94-0.77 2.093-0.77 5.606 0 8.036 1.155 3.729 3.633 7.771 7.916 12.944 3.128 3.777 3.705 3.777 6.833 0 4.283-5.173 6.761-9.239 7.916-12.944 0.722-2.334 0.77-5.726 0.12-7.699-1.227-3.681-3.946-6.472-7.507-7.699-1.396-0.505-4.644-0.818-5.871-0.577zM14.003 2.189c4.090 0.866 7.218 4.162 7.94 8.349 0.553 3.224-0.794 7.29-4.018 12.054-1.708 2.574-5.534 7.242-5.895 7.242s-4.186-4.668-5.895-7.242c-3.224-4.764-4.571-8.83-4.018-12.054 0.698-4.066 3.681-7.29 7.627-8.277 1.564-0.385 2.671-0.409 4.259-0.072z"></path>
<path d="M9.889 6.183c-2.382 0.842-4.138 3.729-3.777 6.256 0.313 2.286 2.045 4.331 4.259 4.98 1.564 0.481 1.756 0.481 3.32 0 1.468-0.433 2.959-1.684 3.657-3.056 2.454-4.764-2.334-9.985-7.459-8.18zM14.075 7.194c0.529 0.241 1.323 0.818 1.732 1.299 2.839 3.224 0.553 8.204-3.777 8.204-2.238 0-4.066-1.323-4.788-3.441-1.035-3.128 1.444-6.52 4.788-6.52 0.601 0 1.516 0.217 2.045 0.457z"></path>
</svg>
