<!-- Generated by IcoMoon.io -->
<svg version="1.1" xmlns="http://www.w3.org/2000/svg" width="35" height="32" viewBox="0 0 35 32">
<title>HVU9lmBWRg</title>
<path d="M23.619 0.176c-0.070 0.106-0.375 0.234-0.703 0.281-0.656 0.117-1.582 0.434-1.758 0.61-0.059 0.059-0.176 0.105-0.27 0.105-0.422 0-1.993 1.242-3.751 2.977-1.055 1.043-2.755 2.708-3.763 3.704-6.517 6.423-11.475 11.405-11.897 11.956-0.586 0.75-1.114 1.829-1.278 2.579-0.27 1.231-0.094 4.372 0.27 4.736 0.070 0.070 0.117 0.188 0.117 0.281s0.188 0.481 0.422 0.856c1.090 1.793 2.801 3.071 4.736 3.528 1.172 0.281 4.138 0.105 4.501-0.258 0.070-0.070 0.188-0.117 0.281-0.117 0.246 0 1.536-0.809 2.063-1.289 0.492-0.445 0.832-0.774 10.573-10.432 6.201-6.142 6.459-6.423 6.869-7.267 0.692-1.465 0.703-3.306 0.023-4.759-0.352-0.774-1.606-2.086-2.274-2.415-1.149-0.551-1.313-0.586-2.59-0.598-1.278 0-1.43 0.023-2.684 0.61-0.246 0.106-3.071 2.837-6.939 6.693l-6.541 6.506v0.551c0 0.469 0.047 0.586 0.34 0.785 0.785 0.563 0.469 0.82 7.42-6.119 4.325-4.325 6.529-6.459 6.892-6.634 0.422-0.223 0.715-0.281 1.465-0.281 1.325 0 2.086 0.41 2.837 1.547 0.399 0.598 0.422 0.692 0.434 1.641 0.012 0.832-0.035 1.102-0.258 1.559-0.211 0.422-2.274 2.532-8.557 8.756-4.56 4.513-8.522 8.381-8.815 8.592-0.727 0.539-1.219 0.75-2.321 0.985-0.891 0.188-0.996 0.188-1.805 0-0.469-0.105-1.067-0.281-1.325-0.399-0.715-0.293-1.641-1.032-2.133-1.7-1.582-2.157-1.594-4.56-0.012-6.705 0.504-0.692 16.117-16.164 17.078-16.938 0.68-0.539 1.489-0.973 2.532-1.36 0.457-0.164 0.938-0.211 2.169-0.211 1.84-0.012 2.38 0.129 4.196 1.090 0.41 0.223 2.168 1.981 2.38 2.38 0.774 1.489 0.938 1.969 1.078 3.177 0.188 1.676-0.082 3.329-0.774 4.595-0.105 0.188-0.246 0.469-0.305 0.621-0.164 0.352-1.922 2.168-7.818 8.076-2.649 2.649-4.958 4.982-5.122 5.193-0.387 0.457-0.41 0.938-0.047 1.36 0.223 0.246 0.375 0.316 0.774 0.316h0.516l6.341-6.353c3.481-3.493 6.564-6.658 6.822-7.021 0.563-0.774 1.336-2.168 1.336-2.403 0-0.094 0.082-0.328 0.176-0.504 0.094-0.188 0.176-0.469 0.176-0.633 0-0.481 0.129-0.821 0.305-0.821 0.129 0 0.164-0.316 0.164-1.594 0-0.949-0.047-1.559-0.105-1.512-0.152 0.094-0.246-0.094-0.363-0.738-0.363-2.004-1.805-4.231-3.634-5.615-0.68-0.504-2.157-1.325-2.403-1.325-0.082 0-0.305-0.082-0.481-0.176-0.188-0.094-0.469-0.176-0.633-0.176-0.481 0-0.82-0.129-0.82-0.305 0-0.258-2.942-0.234-3.106 0.012z"></path>
</svg>
