<!-- Generated by IcoMoon.io -->
<svg version="1.1" xmlns="http://www.w3.org/2000/svg" width="37" height="32" viewBox="0 0 37 32">
<title>iK17qxS3fh</title>
<path d="M9.429 0.4c-3.086 0.571-3.771 0.857-5.429 2.229-0.971 0.857-2.171 2.286-2.686 3.314-1.2 2.286-1.2 7.543 0 9.771 0.457 0.914 4.114 4.914 8.057 8.8 6.057 6.057 7.371 7.086 8.914 7.086s2.857-1.029 8.914-7.086c3.943-3.886 7.6-7.886 8.057-8.8 1.2-2.229 1.2-7.486 0.057-9.714-1.029-1.943-2.914-3.829-4.971-4.857-2.171-1.143-7.771-0.857-10.057 0.514-1.943 1.143-2.057 1.143-3.829 0.114-2-1.143-5.086-1.714-7.029-1.371zM16.286 4.229l2 1.543 2-1.543c4.286-3.257 10.514-2 12.857 2.629 2.571 5.086 1.257 7.886-7.943 16.457l-6.914 6.514-6.914-6.514c-9.2-8.571-10.514-11.371-7.943-16.457 2.343-4.629 8.571-5.886 12.857-2.629z"></path>
<path d="M7.2 7.2c-1.429 1.486-2.057 4.229-0.914 4.229 0.343 0 0.571-0.514 0.571-1.086 0-1.2 2.514-3.486 3.771-3.486 0.457 0 0.8-0.286 0.8-0.571 0-1.143-2.743-0.514-4.229 0.914z"></path>
</svg>
