<!-- Generated by IcoMoon.io -->
<svg version="1.1" xmlns="http://www.w3.org/2000/svg" width="32" height="32" viewBox="0 0 32 32">
<title>Inem6WeK41</title>
<path d="M23.184 0.448c-1.088 0.48-1.76 1.248-3.792 4.352-0.736 1.136-1.968 2.512-2.72 3.040l-1.36 0.96-6.192 0.16c-5.648 0.144-6.272 0.224-7.104 0.832-3.344 2.48-2.016 9.088 1.824 9.088 1.856 0 2.24 1.136 2.24 6.704 0 6.448-0.016 6.416 3.984 6.416 3.792 0 4.848-1.28 3.376-4.16-0.64-1.264-0.912-6.128-0.432-7.92 0.56-2.112 4.848 0.368 6.896 3.968 4.624 8.208 11.376 3.344 11.984-8.656 0.496-9.744-3.744-16.944-8.704-14.784zM26.048 2.288c4.656 2.112 5.344 18.208 0.976 22.592-2.384 2.384-5.328 0.112-6.384-4.96l-0.208-1.040h1.904c2.992 0 4.544-1.68 4.544-4.96 0-3.088-1.872-4.96-4.96-4.96h-1.488l0.224-1.040c0.864-4.080 3.28-6.608 5.392-5.632zM18.128 11.92c-0.096 1.456-0.080 3.616 0.064 4.8 0.128 1.184 0.208 2.16 0.16 2.16s-0.608-0.32-1.264-0.704c-0.656-0.384-2.080-0.864-3.152-1.056-3.904-0.688-4.096-6.224-0.208-6.24 0.64 0 1.872-0.352 2.752-0.784 0.88-0.416 1.648-0.784 1.728-0.784 0.064-0.016 0.032 1.152-0.080 2.608zM10.72 11.44c-0.736 1.744-0.832 2.864-0.384 4.176l0.464 1.344h-3.744c-4.16 0-4.608-0.192-5.008-2.16-0.24-1.2 0.368-3.152 1.104-3.584 1.056-0.624 7.824-0.416 7.568 0.224zM24.176 11.664c2.016 2.016 0.624 5.296-2.24 5.296h-1.696l-0.224-1.408c-0.112-0.784-0.112-2.144 0.016-3.040l0.208-1.632h1.568c1.248 0 1.744 0.16 2.368 0.784zM10.928 22.88c-0.096 3.536-0.032 4.16 0.544 5.328 0.848 1.712 0.72 1.872-1.568 1.872h-1.904v-4.608c0-2.528-0.096-5.040-0.192-5.6l-0.208-0.992h3.44l-0.112 4z"></path>
</svg>
