<!-- Generated by IcoMoon.io -->
<svg version="1.1" xmlns="http://www.w3.org/2000/svg" width="44" height="32" viewBox="0 0 44 32">
<title>K1Aj4QIxF</title>
<path d="M3.467 0.467c-2.733 0.533-3.467 3.667-3.467 15.067 0 5.667 0.2 11.267 0.4 12.467 0.733 3.533 2.867 4 17.733 3.933 7.067-0.067 13.6-0.267 14.467-0.533 2-0.533 10-12.933 10-15.4s-8-14.867-10-15.4c-1.733-0.533-26.667-0.6-29.133-0.133zM36 8.8c2.2 3.4 4 6.667 4 7.2s-1.8 3.8-4 7.133l-3.933 6.2h-13.933c-9.867 0-14.067-0.2-14.667-0.8-1.133-1.133-1.133-23.933 0-25.067 0.6-0.6 4.8-0.8 14.667-0.8h13.933l3.933 6.133z"></path>
<path d="M27.8 13.2c-2.4 2.667-0.6 6.8 3 6.8 3.4 0 5.2-4.6 2.667-6.867-1.6-1.467-4.333-1.4-5.667 0.067zM32.667 14.333c1.733 2.133-0.867 5.4-3.133 3.933-1.533-0.933-1.867-2.733-0.867-3.933 1.067-1.267 2.933-1.267 4 0z"></path>
</svg>
