<!-- Generated by IcoMoon.io -->
<svg version="1.1" xmlns="http://www.w3.org/2000/svg" width="32" height="32" viewBox="0 0 32 32">
<title>l07u7La96</title>
<path d="M13.024 0.336c-12.064 1.856-17.12 17.504-8.608 26.608 9.808 10.496 27.376 3.488 27.376-10.944 0-10.176-8.48-17.248-18.768-15.664zM18.624 2.272c10.848 2.288 15.024 15.36 7.456 23.312-7.984 8.368-21.76 4.080-23.872-7.44-1.696-9.2 7.216-17.808 16.416-15.872z"></path>
<path d="M9.344 6.080c-1.888 1.264-4.544 4.56-4.544 5.632 0 0.88 0.96 0.432 1.408-0.656 0.672-1.584 2.784-3.76 4.512-4.624 1.36-0.672 1.712-1.28 0.912-1.536-0.176-0.064-1.216 0.48-2.288 1.184z"></path>
<path d="M10.48 7.696c-2.24 1.472-4.256 4.416-3.536 5.136 0.224 0.224 0.592-0.112 1.168-1.088 0.912-1.552 2.736-3.312 3.92-3.76 0.816-0.304 1.072-1.264 0.336-1.264-0.224 0-1.072 0.432-1.888 0.976z"></path>
<path d="M11.296 9.568c-1.344 0.976-2.656 2.784-2.656 3.664 0 0.752 0.56 0.64 0.992-0.192 0.544-1.056 2.24-2.784 3.264-3.328 0.864-0.448 0.928-1.072 0.096-1.072-0.224 0-0.992 0.416-1.696 0.928z"></path>
<path d="M14.336 10.24c-4.336 1.296-5.728 6.768-2.528 9.952 4.304 4.304 11.536 0.080 9.952-5.808-0.848-3.104-4.352-5.072-7.424-4.144zM17.12 12.16c1.584 0 3.248 2.976 2.704 4.864-1.12 3.888-6.528 3.888-7.648 0-0.704-2.464 1.92-5.664 4.096-4.992 0.224 0.064 0.608 0.128 0.848 0.128z"></path>
<path d="M14.608 14.672c-1.152 1.264-0.272 3.248 1.44 3.248 1.648 0 2.496-2.208 1.28-3.312-0.768-0.704-2.064-0.672-2.72 0.064zM16.8 16c0 0.944-1.312 1.344-1.632 0.496-0.32-0.816 0.128-1.504 0.912-1.392 0.528 0.064 0.72 0.304 0.72 0.896z"></path>
<path d="M22.272 19.152c-0.464 0.88-2.384 2.736-3.584 3.456-0.56 0.336-0.56 0.384-0.064 0.592 1.2 0.48 4.736-2.784 4.736-4.368 0-0.88-0.56-0.72-1.088 0.32z"></path>
<path d="M23.888 20.256c-0.912 1.552-2.736 3.312-3.92 3.76-0.816 0.304-1.072 1.264-0.336 1.264 1.872 0 6.416-5.12 5.424-6.112-0.224-0.224-0.592 0.112-1.168 1.088z"></path>
<path d="M25.792 20.944c-0.672 1.584-2.784 3.76-4.512 4.624-1.36 0.672-1.712 1.28-0.912 1.536 1.248 0.416 6.832-5.152 6.832-6.816 0-0.88-0.96-0.432-1.408 0.656z"></path>
</svg>
