<!-- Generated by IcoMoon.io -->
<svg version="1.1" xmlns="http://www.w3.org/2000/svg" width="32" height="32" viewBox="0 0 32 32">
<title>L8sfBp4ei</title>
<path d="M3.904 0.384c-1.344 0.352-1.984 1.632-1.984 4.096 0 1.056-0.128 1.92-0.256 1.92-0.416 0-1.28 1.728-1.344 2.72-0.16 2.144 0.032 3.040 0.8 3.936l0.8 0.96v7.712c0 6.176 0.096 7.936 0.48 8.64 0.832 1.664 3.616 1.984 4.864 0.608 0.512-0.576 0.576-1.472 0.672-8.832 0.096-7.424 0.16-8.288 0.672-8.864 1.664-1.824 1.792-4.192 0.352-6.176-0.8-1.12-0.96-1.632-0.96-3.232 0-2.976-1.408-4.16-4.096-3.488zM5.696 2.304c0.224 0.224 0.384 0.928 0.384 1.6 0 1.184-0.032 1.216-1.12 1.216s-1.12-0.032-1.12-1.216c0-1.216 0.448-1.984 1.12-1.984 0.192 0 0.512 0.16 0.736 0.384zM7.072 7.968c1.568 1.568 0.96 4.128-1.088 4.8-1.344 0.448-2.432 0.096-3.392-1.12-0.8-1.024-0.832-1.76-0.192-3.008 0.96-1.888 3.136-2.176 4.672-0.672zM6.080 22.112c0 6.24-0.064 7.296-0.512 7.68-0.352 0.288-0.64 0.32-1.024 0.064-0.48-0.288-0.544-1.184-0.64-7.328-0.032-3.84-0.032-7.136 0.064-7.328 0.064-0.16 0.576-0.32 1.12-0.32h0.992v7.232z"></path>
<path d="M15.2 0.224c-0.352 0.096-0.96 0.448-1.344 0.832-0.736 0.64-0.736 0.768-0.736 8.736v8.096l-0.8 0.864c-0.96 1.024-1.536 2.976-1.248 4.192 0.096 0.48 0.608 1.44 1.12 2.080 0.8 1.024 0.928 1.472 0.928 3.232s0.096 2.144 0.8 2.784c1.056 0.992 3.104 0.992 4.16 0 0.704-0.64 0.8-1.024 0.8-2.88 0-1.728 0.128-2.24 0.64-2.72 0.32-0.288 0.864-1.152 1.12-1.92 0.64-1.632 0.288-3.424-0.96-4.768l-0.8-0.864v-8.096c0-7.968 0-8.096-0.704-8.736-0.8-0.704-1.984-1.056-2.976-0.832zM16.896 9.6l0.064 7.52h-1.92v-7.392c0-4.064 0.096-7.488 0.224-7.616s0.512-0.192 0.896-0.128c0.608 0.096 0.64 0.32 0.736 7.616zM17.28 19.36c3.136 1.632 1.344 6.336-2.080 5.472-1.184-0.288-2.080-1.44-2.080-2.688 0-1.376 0.448-2.176 1.536-2.752 1.12-0.608 1.472-0.608 2.624-0.032zM16.896 28.384c-0.096 1.408-0.16 1.536-0.896 1.536s-0.8-0.128-0.896-1.536c-0.096-1.504-0.096-1.504 0.896-1.504s0.992 0 0.896 1.504z"></path>
<path d="M26.208 0.256c-1.408 0.16-2.016 1.12-2.144 3.52-0.128 1.664-0.32 2.368-0.96 3.2-1.44 1.888-1.248 5.088 0.384 6.432 0.448 0.384 0.512 1.568 0.512 8.512 0 7.552 0.032 8.128 0.64 8.864 0.736 0.992 2.176 1.312 3.52 0.864 1.792-0.64 1.92-1.344 1.92-9.92v-7.712l0.8-0.96c0.768-0.928 0.992-1.92 0.832-3.936-0.096-1.024-0.96-2.72-1.376-2.72-0.128 0-0.256-0.864-0.256-1.92 0-1.12-0.224-2.368-0.48-2.88-0.288-0.544-0.544-0.96-0.576-0.96s-0.512-0.096-1.024-0.256c-0.544-0.128-1.344-0.192-1.792-0.128zM27.776 2.304c0.224 0.224 0.384 0.928 0.384 1.6 0 1.184-0.032 1.216-1.12 1.216s-1.12-0.032-1.12-1.216c0-1.216 0.448-1.984 1.12-1.984 0.192 0 0.512 0.16 0.736 0.384zM28.512 7.36c0.704 0.384 1.568 1.92 1.568 2.816 0 0.832-1.184 2.272-2.176 2.656-1.152 0.448-2.848-0.192-3.424-1.312-0.736-1.408-0.608-2.496 0.448-3.552 0.992-0.992 2.4-1.216 3.584-0.608zM28.16 22.112c0 6.208-0.064 7.296-0.512 7.68-0.352 0.288-0.64 0.32-1.024 0.064-0.48-0.288-0.544-1.216-0.64-7.648l-0.064-7.328 2.24-0.064v7.296z"></path>
</svg>
