<!-- Generated by IcoMoon.io -->
<svg version="1.1" xmlns="http://www.w3.org/2000/svg" width="22" height="32" viewBox="0 0 22 32">
<title>lU2gMwquHT</title>
<path d="M1.181 0.574c0.563 1.92 0.861 4.281 0.861 6.93 0 3.023-0.132 3.95-1.291 9.269-1.622 7.47-0.177 11.895 4.612 14.135 4.171 1.953 11.377 1.126 14.124-1.622 2.306-2.306 3.145-7.106 2.019-11.63-0.706-2.88-4.48-9.578-4.502-8.011-0.011 0.75-0.828 2.748-1.423 3.487l-0.53 0.662-0.154-0.883c-0.43-2.538-1.313-4.59-2.891-6.698l-0.839-1.137-0.375 1.578c-0.552 2.339-1.964 5.109-1.964 3.851 0-0.717-2.284-4.778-3.597-6.422-1.821-2.262-4.326-4.425-4.050-3.509zM5.109 7.338c1.070 1.843 1.423 2.692 2.394 5.683l0.828 2.527 1.446-2.196c0.794-1.214 1.567-2.483 1.71-2.814 0.154-0.331 0.353-0.607 0.43-0.607 0.375 0 1.103 5.021 1.103 7.603v1.545l1.159-1.159c0.64-0.629 1.655-1.832 2.262-2.681 1.335-1.843 1.247-1.832 1.942-0.375 2.428 5.131 2.141 11.046-0.662 13.374-2.692 2.218-9.567 2.383-12.623 0.287-3.288-2.251-3.752-5.032-2.119-12.745 0.794-3.763 1.258-7.812 1.059-9.103-0.177-1.092 0.199-0.861 1.070 0.662z"></path>
<path d="M4.789 15.724c-1.103 3.476-1.501 8.452-0.651 8.287 0.331-0.055 0.408-0.419 0.53-2.273 0.154-2.527 0.607-5.076 0.861-4.811 0.088 0.099 0.64 1.291 1.214 2.659 1.181 2.803 1.114 2.781 2.461 0.706 0.883-1.368 1.17-1.589 1.17-0.894 0 0.739 0.894 3.332 1.148 3.332 0.497 0 3.012-1.556 4.105-2.538 0.96-0.861 1.137-0.949 1.247-0.607 0.154 0.508-0.21 3.454-0.563 4.436-0.188 0.541-0.188 0.794 0 0.982 0.794 0.794 1.688-2.582 1.479-5.661-0.177-2.571-0.199-2.593-1.589-1.059-1.092 1.214-3.597 3.123-4.094 3.123-0.397 0-0.695-1.258-0.828-3.531l-0.132-2.317-1.434 2.262c-0.783 1.247-1.501 2.262-1.567 2.262-0.166 0-1.214-2.328-2.063-4.579-0.728-1.942-0.585-1.964-1.291 0.221z"></path>
</svg>
