<!-- Generated by IcoMoon.io -->
<svg version="1.1" xmlns="http://www.w3.org/2000/svg" width="32" height="32" viewBox="0 0 32 32">
<title>NIS0Tll58</title>
<path d="M19.1 0.6c-4.45 1-7.6 5.9-6.9 10.85l0.3 2.25-6.25 6.3c-5.95 6.050-6.25 6.45-6.25 8.4 0 1.2 0.35 2.35 0.8 2.8 1.1 1.15 4.3 1 5.85-0.2 0.7-0.55 1.9-1 2.7-1 1.85 0 2.65-0.8 2.65-2.6 0-1.2 0.2-1.4 1.4-1.4 1.8 0 2.6-0.85 2.6-2.75 0-1 0.45-2 1.15-2.65 1-0.9 1.55-1.050 3.4-0.8 7.1 0.95 12.5-5.050 10.9-12.2-1.2-5.5-6.3-8.4-12.35-7zM25.15 2.7c5.15 2.15 6.4 8.85 2.4 12.85-2.15 2.2-4.75 2.85-7.8 2.050-1.95-0.5-2.050-0.5-3.85 1.3-1.45 1.35-1.9 2.2-1.9 3.45 0 1.45-0.15 1.65-1.4 1.65-1.8 0-2.6 0.8-2.6 2.6 0 1.25-0.15 1.4-1.65 1.4-1.050 0-2.050 0.4-2.6 1-0.5 0.55-1.55 1-2.35 1-1.2 0-1.4-0.2-1.4-1.35 0-1.1 1.35-2.75 6.6-8 6.35-6.35 6.55-6.65 6-7.9-2.8-6.2 4.1-12.75 10.55-10.050z"></path>
<path d="M21.25 5.25c-0.7 0.65-1.25 1.5-1.25 1.85 0 0.4 1 1.7 2.25 2.9 2.050 2 2.3 2.15 3.5 1.6 0.7-0.3 1.55-1.15 1.85-1.85 0.55-1.2 0.4-1.45-1.6-3.5-1.2-1.25-2.5-2.25-2.9-2.25-0.35 0-1.2 0.55-1.85 1.25zM25.25 7l1.95 2-1.1 1.1-1.1 1.15-2.1-2.1c-2.050-2.050-2.1-2.15-1.15-3.15 0.5-0.55 1.050-1 1.25-1 0.15 0 1.2 0.9 2.25 2z"></path>
</svg>
