<!-- Generated by IcoMoon.io -->
<svg version="1.1" xmlns="http://www.w3.org/2000/svg" width="37" height="32" viewBox="0 0 37 32">
<title>obcwuIq6zB</title>
<path d="M7.229 0.8c-5.914 2.2-8.743 8.771-6.143 14.343 1.486 3.2 15.429 16.857 17.2 16.857s15.714-13.657 17.2-16.857c4.343-9.371-6.286-18.686-15.343-13.4-1.829 1.057-1.886 1.057-3.743-0.057-2.6-1.514-6.457-1.886-9.171-0.886zM14.114 2.886c0.886 0.343 2.171 1.143 2.857 1.8l1.257 1.171 1.771-1.486c6.4-5.371 15.571 0.257 14.029 8.629-0.4 2.2-14.086 16.714-15.743 16.714-1.114 0-14.143-13.114-15.171-15.286-3.257-6.886 3.771-14.257 11-11.543z"></path>
<path d="M7.371 7.371c-0.914 0.943-1.657 2.086-1.657 2.571 0 1.457 0.971 1.057 1.4-0.571 0.229-0.943 1-1.714 2.057-2.114 1.829-0.686 2.257-1.543 0.771-1.543-0.486 0-1.629 0.743-2.571 1.657z"></path>
</svg>
