<!-- Generated by IcoMoon.io -->
<svg version="1.1" xmlns="http://www.w3.org/2000/svg" width="33" height="32" viewBox="0 0 33 32">
<title>OPKuPNvfxw</title>
<path d="M3.959 0.379c-3.596 1.023-3.959 2.458-3.959 15.687 0.017 16.61-0.643 15.918 15.010 15.918 12.998 0.017 14.994-0.825 15.010-6.318 0-0.511 0.412-1.32 0.99-1.963 2.524-2.771 2.375-8.231-0.297-10.639-0.643-0.594-0.693-0.973-0.693-5.542 0-5.542-0.28-6.548-2.012-7.159-1.336-0.462-22.4-0.445-24.049 0.017zM27.53 2.392c0.511 1.666 0.445 7.208-0.082 7.109-0.462-0.082-0.577-0.577-0.66-2.887-0.049-1.534-0.247-2.986-0.445-3.216-0.396-0.462-18.408-0.643-21.509-0.214l-1.534 0.198v2.474c0 2.144-0.066 2.425-0.478 2.062-1.386-1.138-0.825-4.239 0.94-5.311 1.287-0.792 23.538-0.99 23.769-0.214zM25.732 4.701c0 0.544-0.726 0.577-10.705 0.577-10.111 0-11.447-0.115-10.953-0.907 0.379-0.61 21.658-0.28 21.658 0.33zM25.732 6.763c0 0.429-1.435 0.495-10.887 0.495s-10.887-0.066-10.887-0.495c0-0.429 1.435-0.495 10.887-0.495s10.887 0.066 10.887 0.495zM25.732 8.742c0 0.676-21.46 0.594-21.691-0.082-0.115-0.33 2.194-0.412 10.771-0.412 9.534 0 10.92 0.066 10.92 0.495zM15.505 11.216c12.52 0.017 12.091-0.050 12.256 1.814l0.115 1.32-5.625 0.165c-7.258 0.214-8.726 1.072-8.726 5.146 0 4.008 1.913 5.080 8.99 5.080h5.196v1.419c0 3.596-0.858 3.86-12.718 3.86-13.922 0-13.014 0.808-13.014-11.678v-8.429l1.072 0.643c1.006 0.627 1.699 0.66 12.454 0.66zM30.862 19.101c-0.099 0.792-0.495 1.946-0.874 2.557l-0.676 1.105h-11.876l-0.973-0.957c-1.32-1.336-1.32-3.019 0-4.355l0.973-0.957h5.575c5.262 0 5.625-0.033 6.219-0.693l0.627-0.693 0.577 1.27c0.412 0.874 0.544 1.715 0.429 2.722z"></path>
<path d="M17.369 18.161c-1.419 1.122-0.544 3.612 1.27 3.612 0.841 0 1.897-1.188 1.897-2.144 0-1.814-1.715-2.606-3.167-1.468z"></path>
</svg>
