<!-- Generated by IcoMoon.io -->
<svg version="1.1" xmlns="http://www.w3.org/2000/svg" width="22" height="32" viewBox="0 0 22 32">
<title>pLmUOxr01</title>
<path d="M8.75 0.5c-5 0.75-8.3 4.75-8.35 10.15 0 2.8 0.25 3.7 2.5 8.15 1.35 2.7 2.85 6.2 3.3 7.75 1.1 4 2.2 5.2 4.7 5.2 2.7 0 3.8-1.15 4.85-4.9 0.5-1.7 2-5.35 3.35-8.1 2.25-4.4 2.5-5.3 2.5-8.1-0.050-7-5.45-11.25-12.85-10.15zM14.35 2.75c2.5 1.050 3.6 2.1 4.7 4.5 1.35 2.95 1.15 4.5-1.15 9.35l-2.050 4.4h-9.7l-2.050-4.4c-2.3-4.75-2.5-6.2-1.35-8.95 1.050-2.5 2.1-3.6 4.5-4.7 2.45-1.15 4.7-1.2 7.1-0.2zM14.75 23.5c-0.15 0.25-1.050 0.6-2 0.75s-2.5 0.35-3.45 0.5c-1.4 0.25-1.7 0.1-1.95-0.75-0.25-0.95 0-1 3.75-1 2.4 0 3.85 0.2 3.65 0.5zM14.050 26.1c-0.35 0.95-0.9 1.2-2.95 1.4-2.15 0.25-2.6 0.15-2.8-0.6-0.25-1.050 0.050-1.15 5.55-1.85 0.45-0.050 0.5 0.3 0.2 1.050zM13 29.050c-0.45 0.75-0.95 0.95-2.1 0.85-2.3-0.2-2.35-1.3-0.050-1.55 1.050-0.1 2.1-0.2 2.3-0.25s0.15 0.35-0.15 0.95z"></path>
<path d="M6.95 6.95c-1.25 1.25-1.95 2.4-1.95 3.25 0 1.75 0.8 1.65 1.15-0.2 0.4-1.9 1.95-3.45 3.85-3.85 1.85-0.35 1.95-1.15 0.2-1.15-0.85 0-2 0.7-3.25 1.95z"></path>
</svg>
