<!-- Generated by IcoMoon.io -->
<svg version="1.1" xmlns="http://www.w3.org/2000/svg" width="32" height="32" viewBox="0 0 32 32">
<title>qojI2Enn4g</title>
<path d="M28.256 0.384c-0.384 0.192-0.864 0.768-1.088 1.312-0.32 0.8-0.32 1.088 0.064 1.792 0.704 1.216 2.016 1.792 3.168 1.312 1.536-0.64 2.016-3.136 0.832-4.16-0.64-0.512-2.208-0.672-2.976-0.256zM30.464 1.504c0.768 0.704 0.736 1.536-0.096 2.144-1.376 0.96-2.976-0.64-2.016-2.016 0.576-0.8 1.312-0.864 2.112-0.128z"></path>
<path d="M18.080 3.2c-0.352 0.128-1.216 0.864-1.888 1.6-1.024 1.152-1.184 1.504-1.056 2.432l0.192 1.056-6.944 2.752c-3.808 1.536-7.168 2.976-7.456 3.232-0.288 0.288-0.608 0.864-0.704 1.312-0.352 1.856 0.256 2.688 7.328 9.504 6.656 6.432 6.944 6.688 8.16 6.688 0.896 0 1.504-0.224 1.984-0.672 0.352-0.384 1.888-3.776 3.392-7.52 2.624-6.56 2.784-6.848 3.488-6.592 1.024 0.384 1.984-0.096 3.36-1.6 1.984-2.176 1.856-2.432-3.552-7.808-2.624-2.592-4.96-4.704-5.216-4.672-0.256 0-0.736 0.128-1.088 0.288zM26.4 14.080c-1.152 1.184-1.504 1.216-2.496 0.032l-0.8-0.96-0.544 1.504c-0.32 0.832-0.608 1.568-0.672 1.632-0.032 0.032-0.576-0.256-1.152-0.704-1.824-1.376-3.68-2.144-6.080-2.496-4.608-0.704-4.576-0.64-1.024-2.016 1.728-0.704 3.648-1.472 4.224-1.696l1.056-0.448-0.992-0.8c-0.512-0.448-0.96-0.96-0.96-1.12s0.448-0.736 1.024-1.248l1.024-0.992 8.32 8.32-0.928 0.992zM12.832 13.76c3.904 0.672 5.92 1.44 7.744 2.944l0.896 0.736-2.528 6.24c-1.632 4.096-2.688 6.272-3.008 6.336s-3.2-2.528-7.36-6.624c-5.888-5.792-6.784-6.784-6.464-7.264 0.32-0.512 5.472-2.912 6.432-2.976 0.192-0.032 2.112 0.256 4.288 0.608z"></path>
<path d="M8.512 15.744c-1.024 1.44-0.224 3.136 1.44 3.136 1.76 0 2.624-1.632 1.536-2.976-0.832-1.088-2.272-1.152-2.976-0.16zM10.72 16.96c0 0.576-0.192 0.832-0.736 0.896-0.864 0.128-1.28-0.704-0.704-1.408 0.608-0.704 1.44-0.416 1.44 0.512z"></path>
<path d="M14.912 16.672c-1.76 1.376-0.704 4.256 1.568 4.256 1.472 0 2.4-0.992 2.4-2.528 0-1.216-1.184-2.4-2.4-2.4-0.384 0-1.088 0.288-1.568 0.672zM17.312 17.28c0.832 0.448 0.768 1.76-0.096 2.368-0.608 0.416-0.8 0.448-1.376 0.064-0.864-0.576-1.024-1.792-0.288-2.336 0.704-0.512 0.96-0.512 1.76-0.096z"></path>
<path d="M12.16 22.56c-0.32 0.384-0.32 0.576 0 0.96 0.224 0.256 0.576 0.48 0.8 0.48 0.608 0 1.152-0.8 0.928-1.408-0.256-0.64-1.216-0.672-1.728-0.032z"></path>
<path d="M28.16 7.52c-0.32 0.384-0.32 0.576 0 0.96 0.832 1.024 2.176 0.256 1.728-0.96-0.128-0.256-0.448-0.48-0.768-0.48s-0.736 0.224-0.96 0.48z"></path>
</svg>
