<!-- Generated by IcoMoon.io -->
<svg version="1.1" xmlns="http://www.w3.org/2000/svg" width="47" height="32" viewBox="0 0 47 32">
<title>rDmkrM4EE8</title>
<path d="M2.4 0.727c-2.182 0.873-2.545 3.491-2.255 17.236 0.145 8.436 0.509 12.073 1.164 12.727 1.236 1.236 29.382 1.745 32.364 0.655 1.382-0.509 2.109-1.455 2.473-2.982l0.436-2.255 2.255 2.182c2.691 2.618 5.818 2.982 6.982 0.873 0.945-1.891 0.945-24.436 0-26.327-1.164-2.109-4.291-1.745-6.982 0.873l-2.255 2.182-0.436-2.255c-0.364-1.455-1.091-2.473-2.327-2.909-2.327-0.873-29.236-0.873-31.418 0zM33.091 16v12.727h-29.818l-0.218-12c-0.073-6.545 0-12.364 0.218-12.873 0.218-0.8 3.418-0.945 15.055-0.8l14.764 0.218v12.727zM43.636 16c0 8.655-0.218 11.636-0.873 11.636-0.509 0-2.473-1.527-4.364-3.418-3.491-3.418-3.491-3.491-3.491-8.145s0.073-4.8 3.418-8.218c1.891-1.891 3.855-3.491 4.364-3.491 0.727 0 0.945 2.618 0.945 11.636z"></path>
</svg>
