<!-- Generated by IcoMoon.io -->
<svg version="1.1" xmlns="http://www.w3.org/2000/svg" width="32" height="32" viewBox="0 0 32 32">
<title>REhkUmhOGD</title>
<path d="M19.2 0.16c0 0.096-0.107 0.203-0.235 0.256-0.139 0.053-0.352 0.203-0.469 0.341-0.213 0.245-0.683 1.152-0.683 1.344 0 0.235-0.757 1.568-1.291 2.272-0.64 0.853-1.291 1.483-2.293 2.261-0.693 0.533-1.941 1.387-2.176 1.504-0.085 0.043-0.299 0.171-0.48 0.288-0.171 0.117-0.416 0.256-0.533 0.32s-0.352 0.203-0.533 0.32c-0.171 0.117-0.395 0.245-0.48 0.288-0.139 0.064-2.091 1.227-2.656 1.579-2.219 1.397-4.032 2.965-5.269 4.587-0.693 0.896-1.888 3.136-1.888 3.541 0 0.128-0.043 0.267-0.107 0.299-0.16 0.096-0.128 1.259 0.053 1.611 0.171 0.341 10.528 10.688 10.901 10.901 0.331 0.181 1.323 0.16 1.696-0.032 0.181-0.085 0.416-0.267 0.544-0.395 0.213-0.235 0.672-1.141 0.672-1.333 0-0.096 0.651-1.419 0.768-1.579 0.053-0.064 0.32-0.416 0.608-0.8 0.555-0.747 1.227-1.397 2.208-2.155 0.693-0.533 1.941-1.387 2.176-1.504 0.085-0.043 0.309-0.171 0.48-0.288 0.181-0.117 0.416-0.256 0.533-0.32s0.363-0.203 0.533-0.32c0.181-0.117 0.395-0.245 0.48-0.288 0.139-0.064 2.091-1.227 2.656-1.579 2.688-1.685 5.077-3.936 6.048-5.707 0.107-0.203 0.245-0.437 0.309-0.523 0.192-0.267 0.8-1.749 0.8-1.963 0-0.107 0.096-0.224 0.213-0.256 0.181-0.053 0.213-0.149 0.213-0.736 0-0.544-0.032-0.683-0.16-0.683-0.096 0-0.192-0.085-0.235-0.192-0.085-0.256-10.485-10.688-10.773-10.805-0.139-0.043-0.245-0.16-0.245-0.256 0-0.128-0.139-0.16-0.693-0.16s-0.693 0.032-0.693 0.16zM25.045 7.179l4.939 4.949-0.181 0.416c-0.096 0.224-0.245 0.544-0.32 0.704-0.085 0.149-0.149 0.331-0.149 0.395 0 0.395-1.717 2.688-2.656 3.552-0.555 0.501-2.357 1.888-2.837 2.187-2.325 1.397-3.36 2.016-3.573 2.144-0.149 0.075-0.405 0.235-0.587 0.341-0.171 0.117-0.384 0.245-0.469 0.288-0.139 0.064-0.661 0.395-1.44 0.907-1.792 1.195-3.157 2.421-4.128 3.744-0.608 0.811-1.589 2.667-1.589 2.997 0 0.096-0.085 0.171-0.181 0.171-0.235 0-9.952-9.696-9.952-9.92 0-0.192 0.224-0.821 0.405-1.141 0.075-0.128 0.128-0.277 0.128-0.341 0-0.395 1.717-2.688 2.656-3.552 0.544-0.501 2.347-1.888 2.837-2.187 1.739-1.056 3.893-2.336 4.16-2.485 0.117-0.064 0.341-0.192 0.491-0.299 0.16-0.096 0.533-0.331 0.832-0.501 0.299-0.181 0.544-0.352 0.544-0.405 0-0.043 0.053-0.075 0.107-0.075 0.192 0 2.176-1.547 2.837-2.208 0.341-0.341 0.896-0.992 1.227-1.451 0.608-0.811 1.589-2.667 1.589-2.997 0-0.096 0.085-0.171 0.181-0.171 0.107 0 2.4 2.219 5.131 4.939z"></path>
<path d="M20.523 5.205c-0.053 0.043-0.395 0.459-0.757 0.928-0.704 0.928-2.155 2.432-2.741 2.837-0.672 0.459-0.779 1.056-0.203 1.141 0.427 0.064 2.368-1.728 3.509-3.232 0.907-1.195 0.96-1.301 0.725-1.557-0.192-0.213-0.341-0.245-0.533-0.117z"></path>
<path d="M14.347 11.616c-0.341 0.085-0.736 0.288-1.035 0.533-0.117 0.096-0.309 0.117-0.544 0.075-0.256-0.043-0.405-0.021-0.491 0.085s-0.096 0.171-0.011 0.224c0.139 0.085 0.139 0.661 0.011 0.747-0.192 0.107-0.459 0.736-0.597 1.376-0.192 0.928-0.032 1.472 0.629 2.027l0.512 0.437h1.035c0.64-0.011 1.12-0.064 1.28-0.149 0.139-0.075 0.395-0.181 0.565-0.235 0.341-0.096 0.309-0.117 1.312 0.981 0.747 0.821 0.747 0.821 0.533 1.056-0.277 0.309-0.939 0.277-1.632-0.075l-0.565-0.288-0.288 0.224c-0.523 0.395-0.395 0.928 0.341 1.397 0.341 0.213 0.555 0.256 1.173 0.267 0.747 0 1.131-0.128 1.835-0.629 0.203-0.139 0.245-0.128 0.501 0.064 0.32 0.256 0.693 0.277 0.779 0.053 0.032-0.085-0.085-0.331-0.256-0.544l-0.331-0.395 0.245-0.331c0.523-0.693 0.704-1.195 0.704-1.952 0-0.939-0.224-1.301-1.109-1.845-0.587-0.352-1.899-0.363-2.645-0.021-0.277 0.128-0.597 0.235-0.715 0.235-0.128 0-0.437-0.235-0.725-0.555-0.277-0.299-0.597-0.64-0.704-0.747-0.107-0.117-0.181-0.309-0.16-0.437 0.032-0.224 0.085-0.235 1.099-0.235 0.587 0 1.131-0.043 1.205-0.085 0.203-0.139 0.149-0.629-0.117-0.96-0.203-0.256-0.331-0.309-0.875-0.341-0.352-0.021-0.779-0.011-0.96 0.043zM14.112 14.464c0.8 0.864 0.8 0.853 0.245 1.131-0.469 0.224-0.491 0.224-0.896 0.043-0.32-0.139-0.448-0.277-0.533-0.565-0.064-0.203-0.096-0.427-0.075-0.491 0.224-0.629 0.277-0.715 0.48-0.715 0.128 0 0.448 0.245 0.779 0.597zM18.112 16.011c0.437 0.149 0.661 0.523 0.661 1.077-0.011 0.459-0.277 0.939-0.523 0.939-0.149 0-1.291-1.205-1.483-1.557-0.107-0.213-0.107-0.267 0-0.299 0.075-0.032 0.288-0.096 0.459-0.149 0.427-0.149 0.501-0.149 0.885-0.011z"></path>
<path d="M14.24 22.624c-1.365 1.109-2.752 2.613-3.328 3.595-0.235 0.395-0.256 0.501-0.149 0.725 0.213 0.469 0.523 0.288 1.365-0.811 0.757-0.992 1.76-2.037 2.677-2.773 0.512-0.416 0.619-0.64 0.448-0.96-0.171-0.309-0.416-0.256-1.013 0.224z"></path>
</svg>
