<!-- Generated by IcoMoon.io -->
<svg version="1.1" xmlns="http://www.w3.org/2000/svg" width="32" height="32" viewBox="0 0 32 32">
<title>RJchgee9I0</title>
<path d="M21.12 0.416c-1.184 0.352-10.144 8.928-15.648 14.944l-2.784 3.040-1.024 3.68c-1.952 7.136-1.856 6.592-1.248 7.84 0.32 0.704 0.96 1.344 1.664 1.664 1.12 0.544 1.248 0.512 4.736-0.352 7.872-2.016 6.4-1.056 15.648-10.336 8.544-8.576 9.504-9.824 9.536-12.288 0-3.328-2.848-7.136-6.080-8.096-1.952-0.576-3.168-0.608-4.8-0.096zM26.208 2.752c1.216 0.608 1.984 1.28 2.624 2.304 1.76 2.784 1.568 5.088-0.672 7.264l-1.28 1.248v-0.928c0-1.344-1.312-3.968-2.592-5.184-1.312-1.216-3.616-2.304-4.896-2.336h-0.96l1.12-1.152c2.080-2.208 3.968-2.56 6.656-1.216zM15.264 11.776l-4.768 4.768-1.408-0.32-1.44-0.352 3.776-3.808c4.448-4.48 5.216-5.024 7.136-5.024h1.44l-4.736 4.736zM22.272 8.192c0.416 0.288 1.088 0.96 1.472 1.472l0.672 0.96-9.536 9.536-0.96-1.056c-0.512-0.576-1.312-1.28-1.76-1.6l-0.8-0.544 4.64-4.64c2.56-2.56 4.832-4.64 5.056-4.64s0.768 0.224 1.216 0.512zM24.96 13.28c0 0.832-0.192 1.856-0.448 2.336s-2.24 2.624-4.416 4.8l-3.968 3.936-0.384-1.696-0.416-1.664 4.576-4.576c2.528-2.528 4.672-4.576 4.8-4.576 0.16 0 0.256 0.64 0.256 1.44zM10.88 19.008c2.592 1.696 3.808 4.864 2.784 7.296-0.448 1.024-0.736 1.248-2.304 1.696-2.144 0.64-2.56 0.512-2.816-0.736-0.288-1.408-1.952-3.136-3.584-3.776-0.8-0.288-1.44-0.608-1.44-0.704s0.224-1.024 0.544-2.080c0.416-1.568 0.704-1.984 1.504-2.336 1.44-0.672 3.776-0.384 5.312 0.64zM5.728 24.928c1.184 0.832 1.952 2.016 2.048 3.072 0.064 0.928 0 0.96-2.272 1.568l-2.336 0.608-0.672-0.672c-0.672-0.672-0.672-0.672-0.096-2.848 0.32-1.184 0.64-2.304 0.736-2.432 0.192-0.384 1.664 0 2.592 0.704z"></path>
</svg>
