<!-- Generated by IcoMoon.io -->
<svg version="1.1" xmlns="http://www.w3.org/2000/svg" width="32" height="32" viewBox="0 0 32 32">
<title>U5Umi7Wr7e</title>
<path d="M15.52 10.080c-8.288 5.536-15.168 10.272-15.36 10.56-0.48 0.736 0.256 1.184 4.48 2.88l3.84 1.504 1.952 3.392c1.088 1.888 2.208 3.456 2.464 3.52 0.352 0.064 0.928-0.544 1.696-1.76 0.64-1.024 1.248-1.92 1.28-1.984 0.064-0.064 2.432 0.768 5.248 1.888 3.52 1.408 5.248 1.92 5.472 1.696 0.16-0.16 1.472-7.2 2.88-15.616 2.56-15.392 2.624-16.224 1.44-16.128-0.192 0-7.104 4.544-15.392 10.048zM28.608 4.544c-0.768 1.376-15.008 23.52-15.328 23.872s-0.64 0-1.728-1.888c-0.736-1.248-1.28-2.4-1.248-2.528 0.096-0.256 18.272-19.808 18.432-19.808 0.064-0.032 0 0.16-0.128 0.352zM19.616 12.544c-3.488 3.744-7.2 7.712-8.256 8.832l-1.92 2.016-2.080-0.832c-1.152-0.48-2.592-1.056-3.168-1.312l-1.12-0.48 11.2-7.488c6.144-4.096 11.296-7.488 11.424-7.488 0.16-0.032-2.592 3.008-6.080 6.752zM27.232 17.76c-1.056 6.272-1.984 11.52-2.080 11.616-0.256 0.224-8.832-3.168-8.832-3.52s12.544-19.808 12.704-19.648c0.064 0.064-0.736 5.248-1.792 11.552z"></path>
</svg>
