<!-- Generated by IcoMoon.io -->
<svg version="1.1" xmlns="http://www.w3.org/2000/svg" width="38" height="32" viewBox="0 0 38 32">
<title>ubv6xHM5pA</title>
<path d="M11.654 0.296c0 0.178-0.217 0.375-0.454 0.474-0.593 0.237-1.383 1.165-1.699 2.015-0.415 1.106-0.731 1.798-1.225 2.844l-0.474 0.968-1.481 0.257c-0.81 0.158-2.015 0.356-2.686 0.435-1.758 0.257-2.647 0.81-3.378 2.133-0.198 0.336-0.257 2.785-0.257 10.331 0 10.351-0.020 10.173 0.869 11.22 0.928 1.067 0.257 1.027 17.936 1.027 12.721 0 16.454-0.059 16.81-0.257 0.731-0.395 1.363-1.007 1.541-1.481 0.099-0.237 0.296-0.435 0.474-0.435 0.257 0 0.296-1.185 0.296-10.074s-0.039-10.074-0.296-10.074c-0.178 0-0.375-0.198-0.474-0.454-0.395-1.007-1.56-1.699-3.259-1.936-0.672-0.079-1.877-0.277-2.686-0.435l-1.481-0.257-0.474-0.968c-0.494-1.047-0.81-1.738-1.225-2.844-0.316-0.849-1.106-1.778-1.699-2.015-0.237-0.099-0.454-0.296-0.454-0.474 0-0.257-0.869-0.296-7.111-0.296s-7.111 0.040-7.111 0.296zM25.501 2.904c0.316 0.395 0.751 1.323 1.264 2.627 0.178 0.494 0.454 1.146 0.593 1.481 0.158 0.316 0.316 0.77 0.375 1.007 0.099 0.316 0.435 0.474 1.561 0.731 0.77 0.198 1.699 0.336 2.015 0.356 0.869 0 3.358 0.632 3.733 0.948 0.277 0.237 0.316 1.185 0.316 9.659 0 8.454-0.039 9.422-0.336 9.758s-1.067 0.356-16.217 0.356c-14.519 0-15.941-0.020-16.277-0.336-0.336-0.296-0.356-0.869-0.356-9.738 0-8.514 0.039-9.462 0.316-9.699 0.375-0.316 2.864-0.948 3.733-0.948 0.336-0.020 1.244-0.158 2.015-0.356 1.126-0.257 1.462-0.415 1.56-0.731 0.059-0.237 0.217-0.691 0.375-1.007 0.138-0.336 0.415-0.988 0.593-1.481 0.514-1.304 0.948-2.232 1.264-2.627 0.257-0.316 0.83-0.336 6.736-0.336s6.479 0.020 6.736 0.336z"></path>
<path d="M16.593 8.869c-3.733 1.007-6.044 3.398-7.012 7.23-0.375 1.481-0.375 2.272 0 3.753 0.632 2.469 1.758 4.267 3.516 5.57 1.56 1.165 3.99 2.035 5.669 2.035 1.402 0 4.010-0.83 5.215-1.679 1.086-0.731 1.343-0.988 2.173-2.074 1.205-1.6 2.094-3.99 2.094-5.728 0-0.83-0.454-2.746-0.928-3.852-1.067-2.509-3.635-4.583-6.598-5.314-1.62-0.395-2.509-0.375-4.128 0.059zM21.136 11.22c2.943 1.146 4.741 3.694 4.741 6.756 0 4.010-3.101 7.111-7.111 7.111-3.081 0-5.669-1.837-6.795-4.78-0.415-1.106-0.356-3.773 0.099-4.899 0.731-1.817 2.351-3.398 4.227-4.168 1.106-0.474 3.694-0.474 4.84-0.020z"></path>
<path d="M17.205 13.59c-1.244 0.474-2.43 1.738-2.884 3.042-0.415 1.264-0.316 1.798 0.336 1.699 0.356-0.040 0.474-0.217 0.553-0.869 0.138-0.909 0.731-1.857 1.62-2.489 0.356-0.237 0.988-0.494 1.422-0.553 0.711-0.079 0.81-0.158 0.81-0.593 0-0.632-0.632-0.711-1.857-0.237z"></path>
</svg>
