<!-- Generated by IcoMoon.io -->
<svg version="1.1" xmlns="http://www.w3.org/2000/svg" width="22" height="32" viewBox="0 0 22 32">
<title>UrUcOHOC5z</title>
<path d="M5.517 0.11c0 0.066-0.088 0.132-0.221 0.162-0.441 0.088-1.177 0.993-1.177 1.449 0 0.103-0.037 0.272-0.081 0.39-0.044 0.11-0.103 0.405-0.14 0.647-0.059 0.434-0.162 1-0.302 1.67-0.044 0.191-0.103 0.522-0.14 0.736-0.029 0.213-0.096 0.588-0.14 0.831-0.088 0.449-0.228 1.177-0.412 2.17-0.059 0.302-0.125 0.669-0.147 0.817-0.022 0.162-0.154 0.397-0.353 0.633-0.684 0.802-1.015 1.309-1.486 2.273-0.294 0.618-0.471 1.067-0.544 1.434-0.029 0.14-0.081 0.302-0.11 0.353-0.213 0.346-0.302 3.244-0.132 4.2 0.118 0.647 0.39 1.567 0.596 1.971 0.029 0.066 0.169 0.346 0.302 0.618 0.294 0.611 0.846 1.464 1.229 1.883 0.228 0.257 0.302 0.412 0.405 0.883 0.147 0.699 0.287 1.42 0.353 1.854 0.029 0.184 0.096 0.544 0.14 0.809 0.051 0.265 0.14 0.706 0.191 0.993 0.051 0.28 0.14 0.714 0.184 0.956 0.051 0.243 0.118 0.603 0.147 0.809 0.191 1.331 0.419 2.2 0.684 2.553 0.287 0.405 0.478 0.566 0.736 0.618 0.11 0.029 0.221 0.081 0.243 0.11 0.059 0.096 9.203 0.088 9.262-0.007 0.022-0.037 0.11-0.074 0.184-0.074 0.081 0 0.316-0.177 0.537-0.39 0.427-0.412 0.596-0.802 0.714-1.67 0.059-0.405 0.169-0.986 0.302-1.633 0.044-0.191 0.103-0.522 0.14-0.736 0.066-0.463 0.199-1.14 0.302-1.618 0.044-0.191 0.103-0.522 0.14-0.736 0.074-0.486 0.191-1.103 0.346-1.824 0.096-0.449 0.169-0.611 0.405-0.883 0.39-0.441 0.942-1.287 1.236-1.898 0.132-0.272 0.272-0.552 0.302-0.618 0.074-0.14 0.28-0.765 0.463-1.39l0.118-0.412 0.449-0.052c0.684-0.066 1.354-0.559 1.545-1.133 0.044-0.125 0.125-0.235 0.184-0.235 0.081 0 0.103-0.125 0.103-0.552s-0.022-0.552-0.103-0.552c-0.059 0-0.14-0.11-0.184-0.235-0.096-0.294-0.471-0.714-0.817-0.92-0.14-0.088-0.463-0.184-0.714-0.213l-0.463-0.052-0.118-0.412c-0.184-0.611-0.39-1.243-0.463-1.39-0.552-1.14-1.059-1.986-1.434-2.391-0.272-0.294-0.412-0.596-0.412-0.875 0-0.132-0.037-0.36-0.081-0.5s-0.103-0.456-0.14-0.699c-0.037-0.243-0.103-0.64-0.147-0.883-0.052-0.243-0.132-0.677-0.184-0.956-0.052-0.287-0.14-0.714-0.184-0.956-0.052-0.243-0.118-0.611-0.147-0.809-0.059-0.434-0.191-1.133-0.338-1.802-0.059-0.265-0.103-0.552-0.103-0.633 0-0.471-0.809-1.501-1.184-1.501-0.088 0-0.169-0.059-0.191-0.147-0.037-0.147-0.103-0.147-4.59-0.147-4.031 0-4.554 0.015-4.554 0.11zM14.168 2.428c0.081 0.316 0.191 0.912 0.324 1.751 0.037 0.213 0.096 0.544 0.14 0.736 0.132 0.64 0.243 1.228 0.302 1.633 0.029 0.221 0.081 0.493 0.11 0.603 0.044 0.169 0.029 0.206-0.081 0.206-0.125 0-0.618-0.213-1.295-0.559-0.103-0.059-0.257-0.103-0.331-0.103s-0.169-0.029-0.206-0.066c-0.118-0.103-1.192-0.346-1.994-0.449-0.986-0.125-2.722-0.015-3.45 0.221-0.162 0.051-0.441 0.14-0.625 0.199-0.515 0.169-1.42 0.552-1.552 0.662s-0.405 0.125-0.471 0.022c-0.022-0.037-0.015-0.132 0.029-0.206 0.037-0.066 0.103-0.36 0.147-0.64 0.044-0.287 0.118-0.699 0.154-0.92 0.044-0.221 0.125-0.64 0.177-0.92 0.059-0.287 0.14-0.714 0.191-0.956 0.044-0.243 0.11-0.655 0.154-0.912 0.037-0.265 0.103-0.515 0.147-0.574 0.074-0.081 0.817-0.096 4.061-0.081l3.98 0.022 0.088 0.331zM11.137 8.136c1.53 0.265 2.553 0.706 3.796 1.655 0.993 0.75 1.751 1.721 2.383 3.038 0.397 0.831 0.706 2.229 0.706 3.237 0 0.743-0.162 1.81-0.338 2.236-0.059 0.132-0.103 0.294-0.103 0.353 0 0.177-0.611 1.361-1.008 1.957-0.956 1.449-2.611 2.641-4.399 3.171-1.206 0.36-2.28 0.419-3.494 0.199-1.508-0.28-2.347-0.633-3.494-1.479-0.625-0.463-1.582-1.376-1.582-1.515 0-0.029-0.074-0.14-0.169-0.243s-0.191-0.235-0.221-0.294c-0.029-0.059-0.118-0.213-0.191-0.331-0.368-0.566-0.787-1.604-0.89-2.177-0.037-0.191-0.096-0.471-0.14-0.625-0.125-0.434-0.103-2.089 0.037-2.663 0.147-0.647 0.324-1.251 0.441-1.523 0.191-0.456 0.412-0.89 0.552-1.103 0.074-0.125 0.162-0.272 0.191-0.331s0.125-0.191 0.221-0.294c0.096-0.103 0.169-0.213 0.169-0.243 0-0.14 0.956-1.052 1.582-1.515 1.773-1.309 3.943-1.861 5.951-1.508zM14.911 25.137c-0.015 0.154-0.074 0.478-0.118 0.721-0.081 0.412-0.14 0.714-0.412 2.17-0.059 0.302-0.118 0.647-0.14 0.772-0.029 0.221-0.184 1.015-0.235 1.199-0.037 0.132-8.040 0.132-8.077-0.007-0.029-0.081-0.096-0.412-0.338-1.633-0.051-0.243-0.118-0.625-0.147-0.846s-0.096-0.552-0.132-0.736c-0.294-1.251-0.375-1.986-0.221-1.986 0.051 0 0.309 0.103 0.574 0.235 0.691 0.331 1.206 0.53 1.692 0.647 0.14 0.037 0.39 0.096 0.552 0.14 1.258 0.309 3.068 0.287 4.303-0.044 0.905-0.25 1.596-0.508 2.17-0.809 0.243-0.125 0.471-0.206 0.508-0.169 0.029 0.037 0.044 0.191 0.022 0.346z"></path>
<path d="M9.46 9.262c-0.647 0.427-0.64 1.229 0.022 1.633 0.449 0.272 1.052 0.103 1.324-0.375 0.191-0.346 0.191-0.515 0.015-0.868-0.257-0.5-0.905-0.684-1.361-0.39z"></path>
<path d="M5.054 11.16c-0.25 0.243-0.272 0.302-0.272 0.677 0.007 0.456 0.118 0.647 0.5 0.846 0.537 0.272 1.089 0.029 1.339-0.603 0.221-0.566-0.272-1.192-0.942-1.192-0.316 0-0.39 0.029-0.625 0.272z"></path>
<path d="M14.264 11.277c-0.103 0.088-0.434 0.36-0.736 0.603-0.559 0.449-0.603 0.486-1.177 0.964-0.184 0.162-0.486 0.405-0.662 0.552s-0.64 0.53-1.023 0.846c-0.383 0.324-0.831 0.684-0.986 0.802-0.39 0.294-0.706 0.75-0.706 1.008 0 0.309 0.184 0.618 0.493 0.831 0.603 0.405 0.875 0.243 2.17-1.309 0.581-0.691 1.184-1.427 1.346-1.64 0.338-0.441 1.434-1.795 1.743-2.148 0.287-0.338 0.265-0.633-0.052-0.655-0.14-0.015-0.287 0.037-0.412 0.147z"></path>
<path d="M3.443 15.264c-0.353 0.235-0.427 0.383-0.427 0.824 0 0.405 0.11 0.603 0.471 0.824 0.338 0.213 0.633 0.191 0.971-0.052 0.588-0.427 0.588-1.148 0-1.567-0.36-0.265-0.662-0.272-1.015-0.029z"></path>
<path d="M15.514 15.235c-0.677 0.397-0.655 1.324 0.044 1.692 0.405 0.213 0.758 0.154 1.103-0.206 0.228-0.235 0.257-0.309 0.257-0.64 0-0.316-0.037-0.419-0.213-0.618-0.375-0.405-0.75-0.478-1.192-0.228z"></path>
<path d="M5.26 19.472c-0.368 0.199-0.471 0.39-0.478 0.839 0 0.375 0.022 0.434 0.272 0.677 0.235 0.243 0.309 0.272 0.625 0.272 0.669 0 1.162-0.625 0.942-1.192-0.25-0.633-0.824-0.883-1.361-0.596z"></path>
<path d="M13.771 19.494c-0.28 0.177-0.53 0.552-0.53 0.817 0 0.522 0.434 0.949 0.964 0.949 0.309 0 0.405-0.037 0.655-0.265 0.272-0.25 0.294-0.294 0.294-0.655 0-0.427-0.154-0.699-0.515-0.883-0.294-0.147-0.581-0.14-0.868 0.037z"></path>
<path d="M9.46 21.26c-0.463 0.302-0.618 0.861-0.346 1.28 0.441 0.662 1.354 0.64 1.707-0.044 0.177-0.353 0.177-0.522-0.015-0.868-0.272-0.478-0.905-0.655-1.346-0.368z"></path>
</svg>
