<!-- Generated by IcoMoon.io -->
<svg version="1.1" xmlns="http://www.w3.org/2000/svg" width="32" height="32" viewBox="0 0 32 32">
<title>VEjpOkSKb</title>
<path d="M14.88 0.288c-1.12 0.48-1.504 1.216-1.952 3.776-0.288 1.696-0.704 2.88-1.312 3.744-1.248 1.76-2.912 2.848-3.936 2.592-3.456-0.864-6.4-0.416-7.2 1.12-0.704 1.344-0.704 17.536 0 18.848 0.64 1.28 1.984 1.728 4.672 1.568 1.92-0.096 2.368-0.224 2.912-0.896l0.608-0.736 3.264 0.736c4 0.896 12.256 1.28 14.144 0.64 1.312-0.448 2.4-1.888 2.4-3.264 0-0.48 0.352-1.408 0.8-2.048 0.832-1.216 1.312-3.008 0.992-3.808-0.096-0.256 0.128-0.992 0.48-1.6 0.448-0.768 0.64-1.568 0.576-2.624-0.032-0.832 0.128-1.984 0.352-2.496 0.512-1.312 0.192-3.264-0.672-4.192-1.024-1.088-2.496-1.408-6.592-1.408h-3.616v-2.656c0-2.208-0.128-2.944-0.832-4.32-1.216-2.432-3.392-3.712-5.088-2.976zM17.248 2.72c0.512 0.448 1.12 1.344 1.312 1.952 0.384 1.152 0.288 5.056-0.16 6.432-0.224 0.736-0.192 0.736 2.592 0.768 5.312 0.032 8.128 0.384 8.64 1.088 1.184 1.632 0.128 3.040-2.336 3.040-1.28 0-1.696 0.128-1.696 0.48s0.384 0.48 1.536 0.48c1.792 0 2.304 0.384 2.304 1.76 0 1.664-0.64 2.176-2.848 2.336-2.304 0.16-2.528 0.8-0.32 0.96 1.824 0.128 2.304 0.576 2.080 1.792-0.32 1.6-1.056 2.112-2.976 2.112-1.28 0-1.696 0.128-1.696 0.48 0 0.32 0.32 0.48 0.928 0.48 1.504 0 1.952 0.32 1.952 1.312 0 0.64-0.256 1.088-0.8 1.44-1.696 1.12-14.272 0-17.216-1.536-0.48-0.256-0.544-0.96-0.544-7.712v-7.456l1.184-0.576c3.136-1.504 5.248-4.512 5.728-8.192 0.288-2.432 0.768-2.72 2.336-1.44zM6.656 12.224c0.544 0.544 0.544 16.928 0 17.472-0.512 0.512-3.84 0.512-4.352 0-0.288-0.288-0.384-2.688-0.384-8.8 0-7.648 0.064-8.416 0.576-8.704 0.768-0.448 3.68-0.448 4.16 0.032z"></path>
<path d="M3.712 26.336c-0.384 0.288-0.544 0.736-0.448 1.344 0.064 0.8 0.256 0.992 1.056 1.056 0.608 0.096 1.056-0.064 1.344-0.448 0.544-0.768 0.544-0.96-0.224-1.728s-0.96-0.768-1.728-0.224zM4.96 27.2c0.352 0.544-0.16 1.024-0.672 0.608-0.224-0.192-0.352-0.48-0.256-0.64 0.224-0.384 0.672-0.352 0.928 0.032z"></path>
</svg>
