<!-- Generated by IcoMoon.io -->
<svg version="1.1" xmlns="http://www.w3.org/2000/svg" width="32" height="32" viewBox="0 0 32 32">
<title>VFebAua2NH</title>
<path d="M15.95 0.775c-5.7 1.775-9.075 8.25-7.5 14.525l0.6 2.325-4.25 4.35c-5.3 5.4-5.975 7.825-2.75 9.55 1.8 0.975 3.525 0.025 8-4.35l4.35-4.25 1.925 0.525c9.725 2.7 17.8-5.575 14.925-15.3-1.85-6.175-8.6-9.45-15.3-7.375zM24.55 3.4c2.15 1.125 2.925 1.9 4.050 4.050 5.2 9.925-7.675 19.475-15.575 11.575-8.025-8.025 1.475-20.875 11.525-15.625zM11.775 20.525c1.1 1.225-6.525 9.65-8.525 9.375-2.075-0.3-1.4-1.925 2.575-6.125 4.325-4.575 4.6-4.725 5.95-3.25z"></path>
<path d="M17.25 5.475c-1.75 0.725-3.775 3.3-4.075 5.2-0.4 2.45 0.5 2.35 1.25-0.15 0.675-2.2 2.375-3.8 4.6-4.275 0.8-0.175 1.475-0.525 1.475-0.8 0-0.55-1.875-0.55-3.25 0.025z"></path>
</svg>
