<!-- Generated by IcoMoon.io -->
<svg version="1.1" xmlns="http://www.w3.org/2000/svg" width="36" height="32" viewBox="0 0 36 32">
<title>vQMHxuaJJE</title>
<path d="M9.636 1.873c-6.891 1.618-7.727 1.891-8.636 2.873-1.873 2.036-0.891 4.691 2.018 5.455 0.836 0.218 1.818 0.473 2.164 0.582 0.564 0.164 0.636 0.745 0.636 5.618 0 8.182 2.036 9.782 12.364 9.782 10.345 0 12.364-1.6 12.364-9.8v-5.436l1.545-0.4c0.855-0.218 1.836-0.491 2.164-0.582 0.982-0.291 2.109-1.945 2.109-3.091 0-2.418-1.218-3.036-9.982-5.036-9.4-2.164-7.382-2.164-16.745 0.036zM25.855 4.018c11.182 2.636 11.2 3.073 0.345 5.618-8.527 2-7.491 2-16.055-0.018-10.255-2.382-10.491-3.055-1.836-5.073 3.127-0.745 6.509-1.564 7.509-1.818 1-0.273 1.927-0.491 2.055-0.509s3.727 0.782 7.982 1.8zM13.564 12.691l4.618 1.073 4.618-1.073c2.527-0.582 4.818-1.055 5.091-1.055 0.964 0 0.636 9.164-0.345 10.073-3.164 2.909-15.564 2.909-18.727 0-0.982-0.909-1.309-10.073-0.345-10.073 0.273 0 2.564 0.473 5.091 1.055z"></path>
<path d="M33.345 11.855c-0.564 0.582-0.291 11.8 0.291 12.018 1.418 0.545 1.655-0.436 1.545-6.382-0.091-5.764-0.491-6.964-1.836-5.636z"></path>
<path d="M33.345 25.727c-1.582 1.745-1.818 4.855-0.436 5.764 2.8 1.836 4.436-1.8 2.345-5.255-0.8-1.309-1.091-1.4-1.909-0.509z"></path>
</svg>
