<!-- Generated by IcoMoon.io -->
<svg version="1.1" xmlns="http://www.w3.org/2000/svg" width="40" height="32" viewBox="0 0 40 32">
<title>VRPzA6Urc5</title>
<path d="M1.975 0.514c-1.758 0.889-1.956 1.916-1.975 9.837 0 8.217 0.198 9.126 2.114 10.054 1.284 0.593 1.343 0.751 1.541 3.18 0.257 3.121 1.185 4.306 3.654 4.681 1.264 0.198 1.798 0.494 2.114 1.205 1.402 3.081 6.538 3.2 8.257 0.178 1.067-1.857 6.775-1.857 7.862-0.020 1.798 3.022 6.38 3.022 8.178 0 0.415-0.711 1.027-1.185 1.501-1.185 3.259 0 4.286-1.857 4.286-7.684v-4.504l-3.121-4.701c-3.496-5.314-3.398-5.235-7.328-5.235h-2.864l-0.237-1.936c-0.277-2.291-0.869-3.378-2.153-3.97-1.383-0.632-20.543-0.553-21.827 0.099zM23.111 10.469v7.901l-9.837 0.099c-6.914 0.079-9.975-0.020-10.37-0.336-0.731-0.612-0.79-14.558-0.059-15.289 0.356-0.356 3.022-0.454 10.37-0.375l9.896 0.099v7.901zM34.37 12.839l2.785 4.168-0.099 4.227-0.119 4.247-1.106 0.119c-0.889 0.119-1.402-0.198-2.627-1.58-2.232-2.509-4.919-2.509-7.131-0.020l-1.481 1.679-3.121-0.020c-3.042-0.020-3.121-0.040-3.891-1.264-1.778-2.805-6.123-2.825-7.901-0.020-0.612 1.007-1.067 1.284-2.074 1.284l-1.284 0.020v-4.741h16.968l1.304-1.146 1.284-1.165 0.138-4.958 0.138-4.978h5.432l2.785 4.148zM15.23 25.462c2.272 2.291-0.909 5.511-3.259 3.319-1.205-1.146-1.146-2.449 0.138-3.477 1.343-1.047 1.936-1.027 3.121 0.158zM31.23 25.304c1.975 1.975-0.277 5.254-2.686 3.911-2.074-1.146-1.264-4.721 1.086-4.721 0.435 0 1.165 0.375 1.6 0.81z"></path>
<path d="M27.516 10.133c-0.138 0.158-0.257 2.272-0.257 4.741 0 5.175-0.138 5.017 4.365 4.8l2.548-0.119 0.119-1.719c0.277-3.654-4.919-9.56-6.775-7.704zM31.407 13.728c2.607 3.891 2.489 4.839-0.593 4.839h-2.37v-3.753c0-4.662 0.435-4.839 2.963-1.086z"></path>
</svg>
