<!-- Generated by IcoMoon.io -->
<svg version="1.1" xmlns="http://www.w3.org/2000/svg" width="43" height="32" viewBox="0 0 43 32">
<title>VU6F6MBx8i</title>
<path d="M4.416 3.925c-5.995 5.888-6.549 4.267 5.952 17.579 9.749 10.411 10.091 10.709 11.541 10.347 0.853-0.213 19.52-19.755 20.437-21.397 0.725-1.301-0.064-2.56-4.096-6.528l-4.011-3.925h-25.813l-4.011 3.925zM13.973 3.733l-1.173 1.152-1.173-1.152-1.152-1.173h4.651l-1.152 1.173zM23.872 2.88c-0.021 0.171-0.597 0.768-1.28 1.323l-1.259 0.981-1.259-0.981c-1.792-1.429-1.621-1.643 1.259-1.643 1.408 0 2.56 0.149 2.539 0.32zM31.040 3.733l-1.173 1.152-1.173-1.152-1.152-1.173h4.651l-1.152 1.173zM18.56 4.501l1.707 1.493-1.451 1.259-1.451 1.237-1.643-1.301c-1.963-1.536-1.941-1.493-0.491-3.008 1.408-1.472 1.259-1.472 3.328 0.32zM27.392 4.139c1.515 1.451 1.515 1.515-0.448 3.051l-1.643 1.301-1.451-1.237-1.451-1.259 1.707-1.493c2.069-1.792 1.813-1.771 3.285-0.363zM10.56 4.523l1.472 1.131-1.835 1.856c-1.792 1.835-1.899 1.877-4.629 1.877h-2.773l2.965-2.987c3.435-3.477 2.944-3.285 4.8-1.877zM36.907 6.4l2.965 2.987h-2.773c-2.731 0-2.837-0.043-4.608-1.856l-1.835-1.877 1.408-1.109c1.835-1.429 1.429-1.6 4.843 1.856zM14.912 8.128l1.472 1.259h-6.293l1.216-1.28c1.493-1.579 1.749-1.557 3.605 0.021zM22.827 8.107l1.216 1.28h-5.419l1.216-1.28c0.683-0.704 1.344-1.28 1.493-1.28s0.811 0.576 1.493 1.28zM31.36 8.107l1.216 1.28h-6.293l1.472-1.259c1.856-1.579 2.112-1.6 3.605-0.021zM12.437 17.067c2.069 3.392 3.755 6.315 3.755 6.443 0.021 0.149-1.664-1.472-3.712-3.627-2.048-2.133-4.864-5.099-6.293-6.571l-2.56-2.688 5.077 0.256 3.733 6.187zM16.853 11.627c0.619 2.667 2.773 13.76 2.773 14.357 0 0.384-2.112-2.837-4.693-7.125-2.581-4.309-4.693-7.915-4.693-8 0-0.853 6.4-0.107 6.613 0.768zM24.64 11.2c-0.107 0.299-0.832 3.84-1.621 7.893s-1.557 7.36-1.685 7.36c-0.128 0-0.896-3.307-1.685-7.36s-1.515-7.595-1.621-7.893c-0.149-0.405 0.683-0.533 3.307-0.533s3.456 0.128 3.307 0.533zM32.427 10.859c0 0.085-2.112 3.691-4.693 8-2.581 4.288-4.693 7.509-4.693 7.125 0-0.597 2.155-11.691 2.773-14.357 0.213-0.875 6.613-1.621 6.613-0.768zM36.459 13.333c-1.408 1.472-4.224 4.416-6.272 6.549-2.048 2.155-3.733 3.819-3.733 3.691 0-0.235 6.763-11.584 7.381-12.373 0.235-0.32 1.387-0.533 2.795-0.533h2.389l-2.56 2.667z"></path>
</svg>
