<!-- Generated by IcoMoon.io -->
<svg version="1.1" xmlns="http://www.w3.org/2000/svg" width="49" height="32" viewBox="0 0 49 32">
<title>vzqylS10me</title>
<path d="M4.525 0.242c0 0.129-0.194 0.275-0.436 0.323-0.259 0.065-0.566 0.162-0.695 0.259-0.129 0.081-0.404 0.226-0.614 0.307-0.921 0.404-2.15 2.004-2.602 3.41-0.259 0.808-0.259 22.432 0 23.24 0.453 1.406 1.681 3.006 2.602 3.41 0.21 0.081 0.485 0.226 0.614 0.307 0.824 0.485 1.632 0.501 20.687 0.501 13.705 0 19.459-0.049 19.863-0.178 1.923-0.598 3.604-2.246 3.96-3.895 0.065-0.259 0.21-0.453 0.339-0.453 0.21 0 0.242-1.422 0.242-11.313s-0.032-11.313-0.242-11.313c-0.129 0-0.275-0.194-0.339-0.453-0.339-1.584-2.23-3.475-3.814-3.814-0.259-0.065-0.453-0.21-0.453-0.339 0-0.21-2.392-0.242-19.556-0.242s-19.556 0.032-19.556 0.242zM43.329 3.378c0.388 0.178 0.905 0.517 1.131 0.776 0.453 0.501 1.018 1.697 0.937 1.956-0.032 0.097-2.214 1.794-4.832 3.766s-4.8 3.636-4.849 3.701c-0.048 0.065-0.485 0.388-0.97 0.727s-0.921 0.663-0.97 0.727c-0.048 0.065-0.485 0.388-0.97 0.727s-0.921 0.663-0.97 0.727c-0.113 0.145-5.77 4.38-6.335 4.735-0.598 0.372-2.246 0.372-2.844 0-0.566-0.356-6.222-4.59-6.335-4.735-0.049-0.065-0.485-0.388-0.97-0.727s-0.921-0.663-0.97-0.727c-0.049-0.065-0.485-0.388-0.97-0.727s-0.921-0.663-0.97-0.727c-0.049-0.065-0.485-0.388-0.97-0.727s-0.921-0.663-0.97-0.727c-0.049-0.065-1.794-1.39-3.879-2.974s-3.814-2.958-3.846-3.071c-0.081-0.323 0.566-1.616 1.002-2.020 0.226-0.226 0.695-0.517 1.018-0.679 0.582-0.259 1.826-0.275 19.216-0.291 18.069-0.016 18.634 0 19.313 0.291zM8.21 12.137c3.378 2.537 4.962 3.814 4.962 4.024s-1.39 1.341-4.364 3.572c-2.392 1.794-4.606 3.475-4.897 3.733-0.291 0.242-0.679 0.453-0.84 0.453-0.323 0-0.323-0.145-0.323-7.758 0-6.901 0.032-7.758 0.242-7.758 0.145 0 2.489 1.681 5.22 3.733zM45.414 16.162c0 7.612 0 7.758-0.323 7.758-0.162 0-0.55-0.21-0.84-0.453-0.291-0.259-2.489-1.939-4.897-3.733-2.99-2.23-4.364-3.362-4.364-3.572s1.374-1.341 4.364-3.572c2.408-1.794 4.606-3.475 4.897-3.733 0.291-0.242 0.679-0.453 0.84-0.453 0.323 0 0.323 0.145 0.323 7.758zM18.392 19.766c1.923 1.455 3.814 2.764 4.202 2.909 0.873 0.356 2.101 0.356 2.974 0 0.388-0.145 2.279-1.455 4.202-2.909 3.168-2.376 4.008-2.893 4.008-2.505 0 0.065 0.323 0.339 0.711 0.582s0.84 0.566 1.002 0.727c0.178 0.145 2.457 1.891 5.075 3.879 2.618 1.972 4.8 3.669 4.832 3.766 0.081 0.259-0.485 1.455-0.937 1.956-0.226 0.259-0.743 0.598-1.131 0.776-0.679 0.291-1.261 0.307-19.248 0.307s-18.57-0.016-19.248-0.307c-0.388-0.178-0.905-0.517-1.131-0.776-0.453-0.501-1.018-1.697-0.937-1.956 0.032-0.097 2.214-1.794 4.832-3.766 2.618-1.988 4.897-3.733 5.075-3.879 0.162-0.162 0.614-0.485 1.002-0.727s0.711-0.517 0.711-0.582c0-0.388 0.84 0.129 4.008 2.505z"></path>
</svg>
