<!-- Generated by IcoMoon.io -->
<svg version="1.1" xmlns="http://www.w3.org/2000/svg" width="34" height="32" viewBox="0 0 34 32">
<title>w4UDtFI7pa</title>
<path d="M1.736 0.477c-1.685 0.936-1.719 1.157-1.719 15.421-0.017 14.349 0.017 14.74 1.736 15.608 1.379 0.732 29.157 0.732 30.536 0 1.668-0.851 1.753-1.43 1.753-13.038v-10.774l-7.694-7.694-11.898 0.017c-9.226 0-12.085 0.102-12.715 0.46zM24.511 4.8c0 3.932 0.8 4.732 4.732 4.732h2.757v9.804c0 7.166-0.102 9.906-0.409 10.213-0.596 0.596-28.545 0.596-29.14 0-0.579-0.579-0.579-26.519 0-27.098 0.306-0.306 3.268-0.409 11.234-0.409h10.826v2.757zM29.209 8.443c-3.251 0.136-3.677-0.306-3.677-3.796v-2.417l3.081 3.047 3.064 3.064-2.468 0.102z"></path>
<path d="M4.647 5.668c-0.528 0.528-0.238 7.864 0.323 8.085 1.243 0.477 7.898 0.221 8.46-0.323 0.63-0.63 0.766-6.23 0.17-7.319-0.357-0.681-8.323-1.055-8.953-0.443zM11.574 9.702v2.213h-5.106v-4.426h5.106v2.213z"></path>
<path d="M16.085 6.894c0.221 0.681 6.043 0.783 6.043 0.102 0-0.443-0.528-0.528-3.098-0.528-2.315 0-3.047 0.102-2.945 0.426z"></path>
<path d="M16.221 9.753c-0.613 0.613 0.034 0.8 2.843 0.8 2.502 0 3.064-0.102 3.064-0.511 0-0.528-5.396-0.8-5.906-0.289z"></path>
<path d="M16.085 13.362c0.204 0.613 13.243 0.613 13.447 0 0.102-0.323-1.379-0.426-6.723-0.426s-6.826 0.102-6.723 0.426z"></path>
<path d="M4.426 16.511c0 0.443 1.634 0.511 12.596 0.511s12.596-0.068 12.596-0.511c0-0.443-1.634-0.511-12.596-0.511s-12.596 0.068-12.596 0.511z"></path>
<path d="M4.426 19.745c0 0.221 4.426 0.34 12.596 0.34s12.596-0.119 12.596-0.34c0-0.221-4.426-0.34-12.596-0.34s-12.596 0.119-12.596 0.34z"></path>
<path d="M4.426 22.979c0 0.443 1.634 0.511 12.596 0.511s12.596-0.068 12.596-0.511c0-0.443-1.634-0.511-12.596-0.511s-12.596 0.068-12.596 0.511z"></path>
<path d="M4.426 26.043c0 0.443 1.634 0.511 12.596 0.511s12.596-0.068 12.596-0.511c0-0.443-1.634-0.511-12.596-0.511s-12.596 0.068-12.596 0.511z"></path>
</svg>
