<!-- Generated by IcoMoon.io -->
<svg version="1.1" xmlns="http://www.w3.org/2000/svg" width="28" height="32" viewBox="0 0 28 32">
<title>wDswKy67Mx</title>
<path d="M4.304 0.14c0 0.084-0.112 0.187-0.253 0.243-0.365 0.14-0.73 0.505-0.898 0.908-0.262 0.646-0.608 1.609-0.72 2.030-0.075 0.271-0.159 0.533-0.458 1.347-0.084 0.215-0.215 0.421-0.29 0.449-0.749 0.234-1.272 0.636-1.544 1.17-0.206 0.412-0.206 4.108 0 4.594 0.328 0.786 1.029 1.16 2.292 1.216 0.496 0.019 0.515 0.028 0.533 0.299 0.019 0.15 0.084 0.805 0.168 1.45 0.075 0.646 0.196 1.75 0.281 2.461 0.075 0.702 0.206 1.862 0.281 2.573 0.084 0.702 0.206 1.853 0.29 2.545 0.075 0.692 0.197 1.834 0.281 2.526 0.075 0.692 0.197 1.834 0.271 2.526 0.084 0.692 0.206 1.768 0.281 2.386 0.084 0.618 0.14 1.244 0.14 1.385 0 0.524 0.561 1.31 1.151 1.609 0.421 0.215 15.242 0.215 15.663 0 0.674-0.337 1.151-1.085 1.151-1.797 0-0.243 0.047-0.636 0.103-0.87 0.047-0.225 0.131-0.861 0.178-1.404 0.075-0.917 0.14-1.506 0.384-3.462 0.056-0.44 0.14-1.198 0.178-1.684 0.047-0.487 0.122-1.273 0.178-1.731 0.066-0.468 0.168-1.394 0.243-2.058 0.281-2.526 0.43-3.874 0.561-5.006 0.084-0.646 0.15-1.301 0.168-1.45 0.019-0.271 0.037-0.281 0.533-0.299 1.235-0.056 2.021-0.458 2.264-1.16 0.047-0.15 0.15-0.271 0.225-0.271 0.112 0 0.131-0.365 0.131-2.105 0-1.825-0.019-2.105-0.14-2.105-0.084 0-0.178-0.094-0.225-0.215-0.168-0.44-1.057-1.095-1.488-1.095-0.122 0-0.215-0.14-0.337-0.543-0.094-0.29-0.225-0.683-0.29-0.861-0.271-0.758-0.346-1.001-0.421-1.263-0.356-1.263-0.749-1.871-1.329-2.096-0.15-0.056-0.262-0.159-0.262-0.243 0-0.122-1.067-0.14-9.637-0.14s-9.637 0.019-9.637 0.14zM23.055 2.292c0.084 0.122 0.15 0.299 0.15 0.393s0.066 0.29 0.14 0.44c0.075 0.14 0.14 0.318 0.14 0.384 0 0.075 0.047 0.243 0.112 0.393 0.168 0.412 0.346 1.095 0.29 1.17-0.056 0.094-19.836 0.094-19.892 0-0.056-0.075 0.122-0.758 0.29-1.17 0.066-0.15 0.112-0.318 0.112-0.393 0-0.066 0.066-0.243 0.14-0.384 0.075-0.15 0.14-0.346 0.14-0.44s0.066-0.271 0.15-0.393l0.15-0.234h17.927l0.15 0.234zM26.012 8.543c0 0.992-0.037 1.469-0.112 1.544-0.159 0.159-23.757 0.159-23.916 0-0.075-0.075-0.112-0.552-0.112-1.544v-1.432h24.14v1.432zM22.905 12.613c0.028 0.468-0.206 2.292-0.318 2.47-0.066 0.094-17.226 0.103-17.291 0-0.187-0.309-0.421-2.807-0.271-2.947 0.028-0.037 4.061-0.056 8.954-0.047l8.898 0.028 0.028 0.496zM22.494 16.178c0.028 0.037 0.009 0.449-0.047 0.908-0.047 0.458-0.15 1.404-0.234 2.096-0.075 0.692-0.178 1.619-0.234 2.058s-0.14 1.198-0.187 1.684c-0.037 0.487-0.122 1.16-0.168 1.497-0.056 0.337-0.103 0.805-0.103 1.048 0 0.786 0.543 0.73-7.579 0.73s-7.579 0.056-7.579-0.73c0-0.243-0.047-0.711-0.103-1.048-0.047-0.337-0.131-1.011-0.168-1.497-0.047-0.487-0.131-1.244-0.187-1.684s-0.159-1.366-0.234-2.058c-0.084-0.692-0.187-1.637-0.234-2.096-0.056-0.458-0.075-0.87-0.047-0.908 0.066-0.112 17.039-0.112 17.104 0zM21.24 27.715c0 0.374-0.066 1.020-0.14 1.432s-0.131 0.805-0.14 0.861c0 0.094-1.469 0.122-7.018 0.122s-7.018-0.028-7.018-0.122c-0.009-0.056-0.066-0.449-0.14-0.861s-0.14-1.057-0.14-1.432v-0.674h14.596v0.674z"></path>
</svg>
