<!-- Generated by IcoMoon.io -->
<svg version="1.1" xmlns="http://www.w3.org/2000/svg" width="41" height="32" viewBox="0 0 41 32">
<title>WgIOFim4oN</title>
<path d="M7.744 0.64c-2.56 0.32-5.12 0.896-5.568 1.408-1.6 1.6-2.56 12.544-1.664 19.52 0.448 3.456 1.216 6.656 1.664 7.104 0.448 0.512 2.688 1.024 4.928 1.216s4.48 0.704 4.992 1.088c1.216 0.96 15.552 0.96 16.768 0 0.512-0.384 2.752-0.896 4.992-1.088s4.48-0.704 4.928-1.216c1.536-1.536 2.496-12.544 1.6-19.52-0.384-3.456-1.152-6.656-1.6-7.104-1.728-1.728-19.904-2.56-31.040-1.408zM32.192 2.944c5.696 0.512 5.504 0.128 6.016 9.856 0.256 5.696-0.448 13.632-1.344 14.528-0.576 0.576-19.904 0.96-26.112 0.512l-6.848-0.448-0.512-2.304c-0.64-3.072-0.64-16.384 0-19.456 0.512-2.304 0.576-2.368 3.84-2.624 6.208-0.384 20.096-0.448 24.96-0.064z"></path>
<path d="M8.96 5.632c-1.984 0.384-2.304 0.768-3.008 3.328-1.536 6.016-0.512 14.144 1.92 15.488 1.92 1.088 18.176 1.088 20.096 0 2.112-1.152 3.136-6.848 2.24-12.8-0.32-2.624-0.96-5.056-1.344-5.44-0.768-0.768-16.448-1.216-19.904-0.576zM26.048 6.784c1.728 0.256 2.176 0.704 2.752 2.688 0.832 3.008 0.832 8.704 0 11.712-0.576 2.176-0.896 2.368-3.584 2.752-3.84 0.512-10.752 0.512-14.592 0-2.688-0.384-3.008-0.576-3.584-2.752-0.832-3.008-0.832-8.704 0-11.712 0.576-1.984 1.024-2.432 2.752-2.752 4.992-0.768 10.688-0.768 16.256 0.064z"></path>
<path d="M10.88 11.904c-0.832 2.048-0.832 3.456-0.064 3.456 0.32 0 0.704-0.768 0.832-1.792 0.192-1.536 0.512-1.728 2.752-1.92 3.968-0.32 4.288-1.408 0.448-1.408-3.008 0-3.392 0.192-3.968 1.664z"></path>
<path d="M32.64 7.424c-0.704 0.768-0.64 1.152 0.192 2.048 1.024 0.96 1.152 0.96 2.176 0 0.832-0.896 0.896-1.28 0.192-2.048-0.448-0.576-1.024-1.024-1.28-1.024s-0.832 0.448-1.28 1.024zM34.56 8.32c0 0.32-0.256 0.64-0.64 0.64-0.32 0-0.64-0.32-0.64-0.64 0-0.384 0.32-0.64 0.64-0.64 0.384 0 0.64 0.256 0.64 0.64z"></path>
<path d="M32 16c0 0.32 1.152 0.64 2.56 0.64s2.56-0.32 2.56-0.64c0-0.384-1.152-0.64-2.56-0.64s-2.56 0.256-2.56 0.64z"></path>
<path d="M32 19.84c0 0.32 1.152 0.64 2.56 0.64s2.56-0.32 2.56-0.64c0-0.384-1.152-0.64-2.56-0.64s-2.56 0.256-2.56 0.64z"></path>
<path d="M30.72 23.68c0 0.32 1.152 0.64 2.56 0.64s2.56-0.32 2.56-0.64c0-0.384-1.152-0.64-2.56-0.64s-2.56 0.256-2.56 0.64z"></path>
</svg>
