<!-- Generated by IcoMoon.io -->
<svg version="1.1" xmlns="http://www.w3.org/2000/svg" width="32" height="32" viewBox="0 0 32 32">
<title>wNrjF1e01</title>
<path d="M5.5 0.65c-1.25 0.6-1.25 0.65-1.4 8.35l-0.15 7.75-1.8 1.85c-2.9 3-2.6 4.15 2.25 9 4.85 4.9 6 5.15 9 2.25l1.9-1.85h7.25c8.2 0 9.1-0.3 9.1-2.95 0-1.45-1.25-2.85-11.45-13.050-6.3-6.25-11.9-11.55-12.45-11.7s-1.55 0-2.25 0.35zM18.75 13.5c9.15 9.15 11.35 11.6 10.85 12.1s-2.95-1.7-12.2-10.95c-10.15-10.15-12.25-12.65-10.5-12.65 0.2 0 5.5 5.15 11.85 11.5zM20.9 25.9l-6.1 0.15-8.8-8.8v-12.5l21 21-6.1 0.15zM11.9 28.4l-1.95 1.8-4.050-4.1-4.1-4.050 1.75-1.95 1.7-1.95 8.65 8.45-2 1.8z"></path>
<path d="M17.2 0.55c-0.45 0.7 0.3 1.45 1.4 1.45 2.15 0 5.050 1.25 7.1 3.050 2.4 2.15 3.65 4.4 4.2 7.6 0.25 1.35 0.65 2.1 1.1 2.1 0.6 0 0.7-0.55 0.6-2.45-0.35-4.6-2.9-8.45-7.050-10.5-2.45-1.25-6.9-2-7.35-1.25z"></path>
<path d="M17.5 4.35c0 0.3 0.85 0.65 1.9 0.85 3.85 0.6 6.8 3.55 7.4 7.4 0.45 2.55 1.4 2.45 1.050-0.1-0.35-2.65-2.050-5.3-4.4-6.85-1.95-1.3-5.95-2.15-5.95-1.3z"></path>
</svg>
