<!-- Generated by IcoMoon.io -->
<svg version="1.1" xmlns="http://www.w3.org/2000/svg" width="32" height="32" viewBox="0 0 32 32">
<title>wy8qDpC7gh</title>
<path d="M16 1.040c0 0.608-0.288 1.952-0.656 2.992-0.688 2-0.608 3.328 0.208 3.328 0.352 0 0.432-0.192 0.288-0.64-0.112-0.368 0.096-1.584 0.48-2.72 0.72-2.16 0.752-3.696 0.080-3.92-0.272-0.096-0.4 0.224-0.4 0.96z"></path>
<path d="M8.96 5.504c0 0.592-0.304 1.92-0.656 2.96-0.704 1.984-0.624 3.376 0.208 3.376 0.352 0 0.432-0.192 0.288-0.64-0.112-0.368 0.096-1.584 0.48-2.72 0.72-2.16 0.752-3.696 0.080-3.92-0.272-0.096-0.4 0.224-0.4 0.944z"></path>
<path d="M21.12 5.504c0 0.592-0.304 1.936-0.656 2.96-0.528 1.488-0.592 2.064-0.32 2.656 0.384 0.864 1.104 0.656 0.816-0.24-0.096-0.32 0.128-1.456 0.496-2.512 0.704-2.064 0.736-3.584 0.064-3.808-0.272-0.096-0.4 0.224-0.4 0.944z"></path>
<path d="M11.84 12.864c-3.072 1.184-5.504 4.080-6.592 7.856-0.064 0.256-0.768 0.4-2.016 0.4-3.76 0-4.16 1.952-1.152 5.44 1.44 1.664 2.080 2.656 2.080 3.264 0 2.080 0.544 2.176 11.84 2.176s11.84-0.096 11.84-2.176c0-0.608 0.64-1.6 2.080-3.264 3.008-3.488 2.624-5.328-1.184-5.504-2.688-0.128-2.608-0.56 0.368-2 2.704-1.328 3.232-1.904 2.432-2.704-0.448-0.448-0.752-0.368-2.976 0.736l-2.464 1.216-0.496-0.736c-3.12-4.72-8.72-6.64-13.76-4.704zM19.824 13.808c2.848 1.232 5.728 4.288 4.848 5.168-0.304 0.304-0.464 0.256-0.736-0.224-3.712-6.576-14.208-5.856-16.304 1.136-0.4 1.328-1.232 1.68-1.232 0.512 0.016-4.944 8.080-8.912 13.424-6.592zM19.2 15.712c1.632 0.736 3.040 1.968 3.696 3.216 0.8 1.504-0.176 1.232-1.904-0.56-3.568-3.648-9.408-2.768-11.28 1.712-0.416 0.96-1.392 1.472-1.392 0.704 0-3.824 6.72-6.96 10.88-5.072zM18.416 17.568c1.2 0.544 3.024 2.304 3.024 2.896 0 0.672-0.912 0.528-1.296-0.176-1.52-2.848-6.768-2.832-8.304 0.016-0.464 0.88-1.28 1.104-1.28 0.368 0-2.464 4.96-4.432 7.856-3.104zM17.376 19.312c1.136 0.48 2.032 1.392 1.696 1.712-0.112 0.128-0.624-0.016-1.136-0.32-1.168-0.688-2.704-0.688-3.872 0-1.056 0.624-1.568 0.368-0.912-0.432 1.008-1.216 2.688-1.6 4.224-0.96zM30.080 23.248c0 0.112-0.928 1.248-2.080 2.528-1.616 1.792-2.080 2.544-2.080 3.312v0.992h-19.84v-0.992c0-0.768-0.464-1.52-2.080-3.312-1.152-1.28-2.080-2.416-2.080-2.528s6.336-0.208 14.080-0.208c7.744 0 14.080 0.096 14.080 0.208z"></path>
</svg>
