<!-- Generated by IcoMoon.io -->
<svg version="1.1" xmlns="http://www.w3.org/2000/svg" width="28" height="32" viewBox="0 0 28 32">
<title>x7Iuc2riEN</title>
<path d="M7.6 0.5c-0.7 0.3-1.25 1.050-1.4 2-0.3 1.35-0.5 1.5-2.15 1.5-2.5 0-3.55 0.9-3.9 3.35-0.2 1.65-0.050 2.25 0.8 3.1 1 1 1.050 1.55 1.050 10 0 12.25-1 11.3 12 11.3s12 0.95 12-11.3c0-8.45 0.050-9 1.050-10 0.85-0.85 1-1.45 0.8-3.1-0.35-2.45-1.4-3.35-3.9-3.35-1.65 0-1.85-0.15-2.15-1.5-0.2-1-0.7-1.7-1.55-2-1.65-0.6-11.1-0.6-12.65 0zM19.9 3.1c0.15 0.8-0.4 0.9-5.85 0.9-4.7 0-6.050-0.15-6.050-0.65 0-1.25 0.7-1.4 6.2-1.25 4.8 0.15 5.55 0.25 5.7 1zM25.9 7.6l0.15 1.4h-24.050v-1.15c0-0.65 0.15-1.35 0.35-1.55 0.2-0.15 5.5-0.25 11.85-0.2l11.55 0.15 0.15 1.35zM24 19.9c0 6.25-0.2 9.1-0.6 9.5-0.85 0.85-17.95 0.85-18.8 0-0.4-0.4-0.6-3.25-0.6-9.5v-8.9h20v8.9z"></path>
<path d="M6.25 13.6c-0.15 0.4-0.2 3.75-0.15 7.45l0.15 6.7h3.5v-14.5l-1.65-0.15c-1-0.1-1.7 0.1-1.85 0.5zM9 20.5c0 6.15-0.050 6.5-1 6.5s-1-0.35-1-6.5c0-6.15 0.050-6.5 1-6.5s1 0.35 1 6.5z"></path>
<path d="M12.25 13.6c-0.15 0.4-0.2 3.75-0.15 7.45l0.15 6.7h3.5v-14.5l-1.65-0.15c-1-0.1-1.7 0.1-1.85 0.5zM15 20.5c0 6.15-0.050 6.5-1 6.5s-1-0.35-1-6.5c0-6.15 0.050-6.5 1-6.5s1 0.35 1 6.5z"></path>
<path d="M18.25 13.6c-0.15 0.4-0.2 3.75-0.15 7.45l0.15 6.7h3.5v-14.5l-1.65-0.15c-1-0.1-1.7 0.1-1.85 0.5zM21 20.5c0 6.15-0.050 6.5-1 6.5s-1-0.35-1-6.5c0-6.15 0.050-6.5 1-6.5s1 0.35 1 6.5z"></path>
</svg>
