<!-- Generated by IcoMoon.io -->
<svg version="1.1" xmlns="http://www.w3.org/2000/svg" width="22" height="32" viewBox="0 0 22 32">
<title>xbTmnUTVD</title>
<path d="M1.589 0.441c-0.397 0.243-0.905 0.75-1.148 1.148-0.419 0.706-0.441 1.148-0.441 14.411s0.022 13.705 0.441 14.411c0.243 0.397 0.75 0.905 1.148 1.148 0.684 0.419 1.126 0.441 9.446 0.441s8.761-0.022 9.446-0.441c0.397-0.243 0.905-0.75 1.148-1.148 0.419-0.706 0.441-1.148 0.441-14.411s-0.022-13.705-0.441-14.411c-0.243-0.397-0.75-0.905-1.148-1.148-0.684-0.419-1.126-0.441-9.446-0.441s-8.761 0.022-9.446 0.441zM19.73 2.339c0.243 0.221 0.353 0.75 0.353 1.545v1.192h-18.097v-1.192c0-2.008-0.508-1.898 9.048-1.898 7.305 0 8.408 0.044 8.695 0.353zM20.083 16v10.041h-18.097v-20.083h18.097v10.041zM20.083 28.116c0 2.008 0.508 1.898-9.048 1.898s-9.048 0.11-9.048-1.898v-1.192h18.097v1.192z"></path>
<path d="M9.159 3.31c-0.309 0.508 0.287 0.684 2.008 0.618 1.368-0.044 1.743-0.132 1.743-0.397s-0.375-0.353-1.81-0.397c-1.148-0.044-1.854 0.022-1.942 0.177z"></path>
<path d="M10.152 28.469c0 0.375 0.154 0.441 0.883 0.441s0.883-0.066 0.883-0.441c0-0.375-0.154-0.441-0.883-0.441s-0.883 0.066-0.883 0.441z"></path>
</svg>
