<!-- Generated by IcoMoon.io -->
<svg version="1.1" xmlns="http://www.w3.org/2000/svg" width="32" height="32" viewBox="0 0 32 32">
<title>xO9CGTJI7</title>
<path d="M13.44 0.192c-5.92 1.152-10.496 4.992-12.512 10.56-0.992 2.688-0.992 7.808 0 10.496 1.728 4.8 5.376 8.352 10.272 9.984 2.528 0.864 7.488 0.768 10.048-0.16 4.8-1.728 8.352-5.376 9.984-10.272 0.8-2.4 0.8-7.2 0-9.6-1.632-4.896-5.248-8.608-9.984-10.24-1.856-0.672-6.176-1.088-7.808-0.768zM13.44 2.432c0 0.128-0.448 0.704-0.96 1.312-0.544 0.576-1.312 1.792-1.76 2.656-0.448 0.896-0.928 1.6-1.056 1.6-0.16 0-0.96-0.448-1.792-0.96-1.28-0.8-1.472-1.056-1.152-1.44 0.576-0.704 2.4-1.76 4.448-2.592 1.888-0.8 2.272-0.896 2.272-0.576zM15.232 9.216c-0.192 0.16-4.352-0.576-4.352-0.768 0-0.576 1.792-3.456 2.912-4.736l1.408-1.6 0.096 3.456c0.032 1.92 0 3.552-0.064 3.648zM20.352 6.816c0.448 0.864 0.768 1.6 0.704 1.664-0.16 0.128-3.424 0.8-3.936 0.8-0.384 0-0.48-0.672-0.48-3.616l0.032-3.584 1.44 1.568c0.8 0.864 1.824 2.304 2.24 3.168zM22.272 3.68c1.216 0.608 2.496 1.376 2.816 1.728 0.576 0.64 0.544 0.672-0.96 1.632-0.832 0.512-1.632 0.96-1.792 0.96-0.128 0-0.608-0.704-1.056-1.6-0.448-0.864-1.216-2.080-1.76-2.656-0.512-0.608-0.96-1.216-0.96-1.312 0-0.352 1.216 0.064 3.712 1.248zM8.48 8.512l0.992 0.512-0.544 2.112c-0.32 1.184-0.576 2.624-0.576 3.168l-0.032 1.056h-6.080v-1.12c0-1.376 0.992-4.064 2.24-6.048l0.992-1.536 1.024 0.704c0.576 0.352 1.472 0.896 1.984 1.152zM28.576 10.208c0.544 1.12 1.024 2.752 1.12 3.584l0.16 1.568h-6.176l-0.032-1.056c0-0.544-0.256-1.952-0.544-3.104l-0.544-2.080 3.84-2.368 0.608 0.704c0.32 0.384 1.024 1.632 1.568 2.752zM14.624 10.24c0.704 0 0.736 0.096 0.736 2.56v2.56h-3.040c-3.456 0-3.296 0.192-2.688-3.072 0.544-2.944 0.608-3.008 2.592-2.496 0.928 0.256 2.016 0.448 2.4 0.448zM22.368 12.288c0.576 3.296 0.768 3.072-2.688 3.072h-3.040v-5.12l0.896-0.032c0.48 0 1.504-0.192 2.304-0.416 1.792-0.48 2.048-0.256 2.528 2.496zM8.448 18.368c0.096 0.96 0.448 2.592 0.768 3.616l0.608 1.888-1.888 0.992-1.856 0.992-0.864-1.024c-1.248-1.472-2.752-4.864-2.912-6.624l-0.16-1.568h6.080l0.224 1.728zM15.36 19.648v3.008l-2.016 0.352c-1.12 0.192-2.176 0.352-2.336 0.352-0.416 0-1.312-2.848-1.6-5.056l-0.224-1.664h6.176v3.008zM22.592 18.304c-0.288 2.208-1.184 5.056-1.6 5.056-0.16 0-1.216-0.16-2.336-0.352l-2.016-0.352v-6.016h6.176l-0.224 1.664zM29.696 18.208c-0.16 1.76-1.664 5.152-2.912 6.624l-0.864 1.024-1.856-0.992-1.888-0.992 0.608-1.888c0.32-1.024 0.672-2.656 0.768-3.616l0.224-1.728h6.080l-0.16 1.568zM15.36 26.784l-0.032 3.136-1.44-1.568c-0.8-0.864-1.728-2.112-2.080-2.784l-0.608-1.216 1.216-0.192c0.64-0.128 1.344-0.256 1.504-0.32 1.344-0.448 1.44-0.288 1.44 2.944zM19.904 24.192l0.896 0.192-0.64 1.184c-0.32 0.672-1.248 1.92-2.048 2.784l-1.44 1.568-0.032-3.168v-3.136l1.216 0.192c0.64 0.128 1.568 0.288 2.048 0.384zM10.944 26.048c0.288 0.576 0.992 1.6 1.568 2.24 0.544 0.64 0.928 1.248 0.864 1.344-0.416 0.384-6.336-2.432-6.336-3.008 0-0.288 2.496-1.6 3.072-1.632 0.192-0.032 0.576 0.448 0.832 1.056zM23.52 25.664c0.8 0.384 1.44 0.8 1.44 0.96 0 0.576-5.92 3.392-6.336 3.008-0.064-0.096 0.32-0.704 0.864-1.344 0.576-0.64 1.28-1.664 1.568-2.24 0.256-0.608 0.608-1.088 0.768-1.088 0.128 0 0.896 0.32 1.696 0.704z"></path>
</svg>
