<!-- Generated by IcoMoon.io -->
<svg version="1.1" xmlns="http://www.w3.org/2000/svg" width="33" height="32" viewBox="0 0 33 32">
<title>xvubK101</title>
<path d="M15.174 0.723c-0.568 0.413-1.755 2.477-2.684 4.594l-1.703 3.819-4.645 0.671c-4.594 0.619-6.142 1.342-6.142 2.942 0 0.413 1.6 2.426 3.51 4.49l3.51 3.665-0.619 3.355c-0.981 5.006-0.929 6.555 0.361 7.277 0.981 0.465 1.806 0.258 5.419-1.6l4.335-2.219 4.335 2.219c3.613 1.858 4.439 2.065 5.419 1.6 1.29-0.723 1.342-2.271 0.361-7.277l-0.619-3.355 3.51-3.665c1.91-2.065 3.51-4.077 3.51-4.49 0-1.6-1.548-2.323-6.142-2.942l-4.594-0.671-1.806-4.026c-1.032-2.168-2.323-4.232-2.89-4.542-1.29-0.723-1.187-0.723-2.426 0.155zM18.839 6.865l2.065 4.232 4.645 0.723c2.581 0.413 4.697 0.774 4.8 0.826 0.103 0.103-1.239 1.497-2.994 3.148-1.703 1.6-3.252 3.458-3.406 4.077-0.258 0.981 0.361 5.419 1.187 8.929 0.258 1.032-0.052 0.929-3.871-1.187-2.271-1.29-4.387-2.323-4.748-2.323s-2.477 1.032-4.748 2.323c-3.819 2.116-4.129 2.219-3.871 1.187 0.826-3.51 1.445-7.948 1.187-8.929-0.155-0.619-1.703-2.477-3.406-4.077-1.755-1.652-3.097-3.045-2.994-3.148 0.103-0.052 2.219-0.413 4.8-0.826l4.645-0.723 2.065-4.232c1.135-2.323 2.168-4.232 2.323-4.232s1.187 1.91 2.323 4.232z"></path>
</svg>
