<!-- Generated by IcoMoon.io -->
<svg version="1.1" xmlns="http://www.w3.org/2000/svg" width="34" height="32" viewBox="0 0 34 32">
<title>yk7zUReS</title>
<path d="M2.179 0.227c-0.079 0.125-0.216 0.227-0.306 0.227-0.17 0-0.749 0.363-1.021 0.624-0.261 0.261-0.624 0.851-0.624 1.010 0 0.091-0.057 0.204-0.113 0.238-0.079 0.045-0.113 4.028-0.113 11.586v11.518l0.295 0.624c0.408 0.862 1.305 1.532 2.19 1.645 0.352 0.045 2.996 0.091 5.878 0.091 5.061 0.011 5.254 0.023 5.367 0.227 0.057 0.125 0.113 0.374 0.113 0.567 0 0.454-0.352 0.681-1.146 0.76-0.669 0.057-2.485 0.295-4.244 0.556-0.624 0.091-1.237 0.17-1.373 0.17-0.658 0-0.965 1.089-0.454 1.634l0.261 0.295h19.972l0.306-0.284c0.363-0.34 0.397-0.919 0.068-1.305-0.17-0.193-0.477-0.295-1.441-0.465-0.669-0.113-1.43-0.216-1.679-0.216s-0.635-0.045-0.851-0.113c-0.216-0.057-0.919-0.159-1.566-0.216-1.384-0.125-1.725-0.295-1.725-0.84 0-0.794-0.329-0.749 5.957-0.783 5.662-0.034 5.674-0.034 6.162-0.295 0.658-0.352 1.328-1.044 1.498-1.543 0.068-0.227 0.204-0.409 0.295-0.409 0.136 0 0.159-1.645 0.159-11.597 0-6.377-0.034-11.552-0.079-11.518-0.102 0.102-0.374-0.136-0.374-0.34 0-0.148-0.374-0.738-0.624-0.999-0.272-0.261-0.851-0.624-1.021-0.624-0.091 0-0.227-0.102-0.306-0.227-0.148-0.227-0.272-0.227-14.729-0.227s-14.582 0-14.729 0.227zM31.206 2.349c0.726 0.511 0.669-0.454 0.681 11.631v10.984l-0.329 0.363-0.329 0.374h-28.641l-0.329-0.374-0.329-0.363v-10.984c0.011-12.085-0.045-11.121 0.681-11.631 0.261-0.182 1.226-0.193 14.298-0.193s14.037 0.011 14.298 0.193z"></path>
<path d="M4.925 4.505c-0.136 0.023-0.34 0.148-0.454 0.284-0.204 0.216-0.216 0.613-0.25 7.875-0.011 4.21 0.011 7.818 0.068 8.023 0.068 0.25 0.204 0.42 0.488 0.556 0.352 0.182 1.294 0.193 12.074 0.193 12.494-0.011 12.335 0 12.618-0.567 0.113-0.216 0.136-2.020 0.113-8.068l-0.023-7.796-0.522-0.522-11.938-0.011c-6.559-0.011-12.051 0-12.176 0.034zM28.539 12.936v7.433h-23.262l-0.034-7.319c-0.011-4.028 0-7.387 0.034-7.467 0.034-0.113 2.428-0.136 11.654-0.113l11.608 0.034v7.433z"></path>
</svg>
