<!-- Generated by IcoMoon.io -->
<svg version="1.1" xmlns="http://www.w3.org/2000/svg" width="32" height="32" viewBox="0 0 32 32">
<title>yxDIxoMqbR</title>
<path d="M20.672 1.632c-5.696 1.024-8.8 1.728-9.12 2.048-0.448 0.416-0.512 1.824-0.608 9.44l-0.096 8.928-1.088-0.48c-2.592-1.056-6.080-0.288-8.064 1.824-1.728 1.856-2.112 3.648-1.152 5.632 1.632 3.456 7.52 3.872 10.624 0.768 1.728-1.728 1.952-3.104 1.952-12.192 0-4.224 0.064-7.68 0.16-7.68s3.808-0.64 8.256-1.44c4.48-0.8 8.224-1.44 8.32-1.44 0.128 0 0.224 2.752 0.224 6.080v6.112l-1.024-0.544c-2.208-1.152-6.080-0.48-8.032 1.408-2.72 2.592-2.368 6.432 0.736 8.128 0.864 0.48 1.632 0.576 3.392 0.512 2.88-0.128 4.992-1.312 6.112-3.424 0.736-1.408 0.736-1.504 0.736-12.736 0-10.88-0.032-11.328-0.64-11.936-0.352-0.352-0.96-0.64-1.344-0.608-0.416 0.032-4.608 0.736-9.344 1.6zM30.080 3.52c0 0.864-0.16 1.6-0.32 1.6-0.192 0-3.968 0.64-8.416 1.44-4.48 0.8-8.224 1.44-8.352 1.44s-0.192-0.672-0.128-1.536l0.096-1.504 8.32-1.504c4.576-0.8 8.416-1.504 8.576-1.504 0.128-0.032 0.224 0.672 0.224 1.568zM28.832 20.832c2.624 1.856 0.448 5.664-3.456 5.984-2.208 0.192-3.552-0.384-4.128-1.76-0.8-1.92 0.512-3.904 3.136-4.736 1.632-0.544 3.264-0.352 4.448 0.512zM10.080 24c0.576 0.544 0.8 1.088 0.8 2.016 0 2.336-3.168 4.448-5.952 3.936-1.408-0.288-3.008-1.76-3.008-2.816 0-1.152 1.12-2.72 2.464-3.456 1.696-0.896 4.544-0.768 5.696 0.32z"></path>
</svg>
